<?xml version="1.0" encoding="utf-8"?>
<!-- Generator: Adobe Illustrator 18.0.0, SVG Export Plug-In . SVG Version: 6.00 Build 0)  -->
<!DOCTYPE svg PUBLIC "-//W3C//DTD SVG 1.1//EN" "http://www.w3.org/Graphics/SVG/1.1/DTD/svg11.dtd">
<svg version="1.1" id="Слой_1" xmlns="http://www.w3.org/2000/svg" xmlns:xlink="http://www.w3.org/1999/xlink" x="0px" y="0px"
	 viewBox="0 0 178 61" enable-background="new 0 0 178 61" xml:space="preserve">
<path fill="#F7C215" d="M32.1,0.6C16,0.6,2.8,13.7,2.8,29.8S16,59,32.1,59c16.1,0,29.3-13.1,29.3-29.2S48.2,0.6,32.1,0.6z
	 M32.1,55.7c-14.3,0-26-11.6-26-25.9c0-14.3,11.7-25.9,26-25.9s26,11.6,26,25.9C58.1,44.1,46.4,55.7,32.1,55.7z"/>
<g>
	<path fill="#F7C215" d="M32.1,54.1c-13.4,0-24.3-10.9-24.3-24.3c0-13.4,10.9-24.3,24.3-24.3c13.4,0,24.3,10.9,24.3,24.3
		C56.4,43.2,45.5,54.1,32.1,54.1z M32.1,7.6c-12.3,0-22.3,10-22.3,22.2c0,12.3,10,22.2,22.3,22.2s22.3-10,22.3-22.2
		C54.4,17.5,44.4,7.6,32.1,7.6z"/>
</g>
<g>
	<path fill="#F7C215" d="M32.1,50.4c-11.4,0-20.6-9.2-20.6-20.6c0-11.4,9.3-20.6,20.6-20.6c11.4,0,20.6,9.2,20.6,20.6
		C52.7,41.2,43.5,50.4,32.1,50.4z M32.1,10.4c-10.7,0-19.4,8.7-19.4,19.4c0,10.7,8.7,19.4,19.4,19.4c10.7,0,19.4-8.7,19.4-19.4
		C51.5,19.1,42.8,10.4,32.1,10.4z"/>
</g>
<g>
	<path fill="#F7C215" d="M32.1,39.4c-5.3,0-9.6-4.3-9.6-9.6c0-5.3,4.3-9.6,9.6-9.6s9.6,4.3,9.6,9.6C41.7,35.1,37.4,39.4,32.1,39.4z
		 M32.1,23c-3.7,0-6.8,3-6.8,6.8s3,6.8,6.8,6.8c3.7,0,6.8-3,6.8-6.8S35.8,23,32.1,23z"/>
</g>
<path fill="#F7C215" d="M33.1,25.5c0.9,0.2,1.6,0.7,2.2,1.3l1.3-0.7c-0.9-1-2.1-1.8-3.5-2V25.5z"/>
<path fill="#F7C215" d="M28.9,26.8c0.6-0.6,1.4-1.1,2.2-1.3V24c-1.4,0.2-2.6,1-3.5,2L28.9,26.8z"/>
<path fill="#F7C215" d="M37.6,31.8c0.2-0.6,0.4-1.3,0.4-2c0-0.7-0.1-1.4-0.4-2l-1.3,0.7c0.1,0.4,0.2,0.8,0.2,1.3
	c0,0.4-0.1,0.9-0.2,1.3L37.6,31.8z"/>
<path fill="#F7C215" d="M35.3,32.8c-0.6,0.6-1.4,1.1-2.2,1.3v1.5c1.4-0.2,2.6-1,3.5-2L35.3,32.8z"/>
<path fill="#F7C215" d="M31.1,34.1c-0.9-0.2-1.6-0.7-2.2-1.3l-1.3,0.7c0.9,1,2.1,1.8,3.5,2V34.1z"/>
<path fill="#F7C215" d="M27.8,31.1c-0.1-0.4-0.2-0.8-0.2-1.3c0-0.4,0.1-0.9,0.2-1.3l-1.3-0.7c-0.2,0.6-0.4,1.3-0.4,2
	c0,0.7,0.1,1.4,0.4,2L27.8,31.1z"/>
<path fill="#F7C215" d="M44.3,41.7l-0.5,0.5c-3.2,3-7.4,4.7-11.8,4.7c-9.4,0-17.1-7.6-17.1-17c0-4.4,1.7-8.5,4.7-11.7l0.5-0.5
	l-10-10L9.6,8.2C3.9,14,0.7,21.7,0.7,29.8c0,17.1,14,31.1,31.3,31.1c8.2,0,15.9-3.1,21.8-8.8l0.5-0.5L44.3,41.7z"/>
<g>
	<defs>
		<polygon id="SVGID_1_" points="11.5,9.1 13.5,7.3 16.2,9.3 13.8,11.4 		"/>
	</defs>
	<use xlink:href="#SVGID_1_"  overflow="visible" fill="#F7C215"/>
	<clipPath id="SVGID_2_">
		<use xlink:href="#SVGID_1_"  overflow="visible"/>
	</clipPath>
	<polygon clip-path="url(#SVGID_2_)" fill="#F7C215" points="16.2,9.6 14.1,7.3 16.2,7.3 	"/>
	<polygon clip-path="url(#SVGID_2_)" fill="#F7C215" points="16.2,9.6 14,7.3 14.1,7.3 16.2,9.6 	"/>
	<polygon clip-path="url(#SVGID_2_)" fill="#F7C215" points="16.2,9.7 14,7.3 14,7.3 16.2,9.6 	"/>
	<polygon clip-path="url(#SVGID_2_)" fill="#F7C215" points="16.2,9.7 14,7.3 14,7.3 16.2,9.7 	"/>
	<polygon clip-path="url(#SVGID_2_)" fill="#F7C215" points="16.2,9.7 13.9,7.3 14,7.3 16.2,9.7 	"/>
	<polygon clip-path="url(#SVGID_2_)" fill="#F7C215" points="16.2,9.8 13.9,7.3 13.9,7.3 16.2,9.7 	"/>
	<polygon clip-path="url(#SVGID_2_)" fill="#F7C215" points="16.2,9.8 13.9,7.3 13.9,7.3 16.2,9.8 	"/>
	<polygon clip-path="url(#SVGID_2_)" fill="#F7C215" points="16.2,9.9 13.8,7.3 13.9,7.3 16.2,9.8 	"/>
	<polygon clip-path="url(#SVGID_2_)" fill="#F7C215" points="13.8,7.3 16.2,9.9 16.2,9.9 13.8,7.3 	"/>
	<polygon clip-path="url(#SVGID_2_)" fill="#F7C215" points="16.2,9.9 13.7,7.3 13.8,7.3 16.2,9.9 	"/>
	<polygon clip-path="url(#SVGID_2_)" fill="#F7C215" points="16.2,10 16.2,10 13.7,7.3 13.7,7.3 16.2,9.9 	"/>
	<polygon clip-path="url(#SVGID_2_)" fill="#F7C215" points="16.2,10 16.2,10 13.7,7.3 13.7,7.3 	"/>
	<polygon clip-path="url(#SVGID_2_)" fill="#F7C215" points="16.2,10 16.1,10 13.6,7.3 13.7,7.3 	"/>
	<polygon clip-path="url(#SVGID_2_)" fill="#F7C215" points="16.1,10 16.1,10 13.6,7.3 13.6,7.3 	"/>
	<polygon clip-path="url(#SVGID_2_)" fill="#F7C215" points="16.1,10 16.1,10.1 13.6,7.3 13.6,7.3 	"/>
	<polygon clip-path="url(#SVGID_2_)" fill="#F7C215" points="16.1,10.1 16.1,10.1 13.5,7.3 13.6,7.3 	"/>
	<polygon clip-path="url(#SVGID_2_)" fill="#F7C215" points="16.1,10.1 16.1,10.1 13.5,7.3 13.5,7.3 	"/>
	<polygon clip-path="url(#SVGID_2_)" fill="#F7C215" points="16.1,10.1 16,10.1 13.5,7.3 13.5,7.3 	"/>
	<polygon clip-path="url(#SVGID_2_)" fill="#F7C215" points="16,10.1 16,10.1 13.4,7.3 13.5,7.3 	"/>
	<polygon clip-path="url(#SVGID_2_)" fill="#F7C215" points="16,10.1 16,10.1 13.4,7.3 13.4,7.3 	"/>
	<polygon clip-path="url(#SVGID_2_)" fill="#F7C215" points="16,10.1 16,10.2 13.3,7.3 13.4,7.3 	"/>
	<polygon clip-path="url(#SVGID_2_)" fill="#F7C215" points="16,10.2 16,10.2 13.3,7.3 13.3,7.3 	"/>
	<polygon clip-path="url(#SVGID_2_)" fill="#F7C215" points="16,10.2 15.9,10.2 13.3,7.3 13.3,7.3 	"/>
	<polygon clip-path="url(#SVGID_2_)" fill="#F7C215" points="15.9,10.2 15.9,10.2 13.2,7.3 13.3,7.3 	"/>
	<polygon clip-path="url(#SVGID_2_)" fill="#F7C215" points="15.9,10.2 15.9,10.2 13.2,7.3 13.2,7.3 	"/>
	<polygon clip-path="url(#SVGID_2_)" fill="#F7C215" points="15.9,10.2 15.9,10.3 13.2,7.3 13.2,7.3 	"/>
	<polygon clip-path="url(#SVGID_2_)" fill="#F7C215" points="15.9,10.3 15.9,10.3 13.1,7.3 13.2,7.3 	"/>
	<polygon clip-path="url(#SVGID_2_)" fill="#F7C215" points="15.9,10.3 15.8,10.3 13.1,7.3 13.1,7.3 	"/>
	<polygon clip-path="url(#SVGID_2_)" fill="#F7C215" points="15.8,10.3 15.8,10.3 13,7.3 13.1,7.3 	"/>
	<polygon clip-path="url(#SVGID_2_)" fill="#F7C215" points="15.8,10.3 15.8,10.3 13,7.3 13,7.3 	"/>
	<polygon clip-path="url(#SVGID_2_)" fill="#F7C215" points="15.8,10.3 15.8,10.3 13,7.3 13,7.3 	"/>
	<polygon clip-path="url(#SVGID_2_)" fill="#F7C215" points="15.8,10.3 15.8,10.4 12.9,7.3 13,7.3 	"/>
	<polygon clip-path="url(#SVGID_2_)" fill="#F7C215" points="15.8,10.4 15.7,10.4 12.9,7.3 12.9,7.3 	"/>
	<polygon clip-path="url(#SVGID_2_)" fill="#F7C215" points="15.7,10.4 15.7,10.4 12.9,7.3 12.9,7.3 	"/>
	<polygon clip-path="url(#SVGID_2_)" fill="#F7C215" points="15.7,10.4 15.7,10.4 12.8,7.3 12.9,7.3 	"/>
	<polygon clip-path="url(#SVGID_2_)" fill="#F7C215" points="15.7,10.4 15.7,10.4 12.8,7.3 12.8,7.3 	"/>
	<polygon clip-path="url(#SVGID_2_)" fill="#F7C215" points="15.7,10.4 15.6,10.5 12.8,7.3 12.8,7.3 	"/>
	<polygon clip-path="url(#SVGID_2_)" fill="#F7C215" points="15.6,10.5 15.6,10.5 12.7,7.3 12.7,7.3 12.8,7.3 	"/>
	
		<rect x="14.1" y="6.7" transform="matrix(0.7422 -0.6702 0.6702 0.7422 -2.3087 11.7848)" clip-path="url(#SVGID_2_)" fill="#F7C215" width="0" height="4.3"/>
	
		<rect x="14.1" y="6.8" transform="matrix(0.7421 -0.6703 0.6703 0.7421 -2.326 11.777)" clip-path="url(#SVGID_2_)" fill="#F7C215" width="0" height="4.3"/>
	
		<rect x="14.1" y="6.8" transform="matrix(0.7248 -0.6889 0.6889 0.7248 -2.2659 12.1866)" clip-path="url(#SVGID_2_)" fill="#F7C215" width="0" height="4.3"/>
	
		<rect x="14.1" y="6.8" transform="matrix(0.7598 -0.6501 0.6501 0.7598 -2.4307 11.317)" clip-path="url(#SVGID_2_)" fill="#F7C215" width="0" height="4.3"/>
	
		<rect x="14.1" y="6.8" transform="matrix(0.7083 -0.7059 0.7059 0.7083 -2.2215 12.5567)" clip-path="url(#SVGID_2_)" fill="#F7C215" width="0" height="4.3"/>
	
		<rect x="14" y="6.8" transform="matrix(0.7598 -0.6501 0.6501 0.7598 -2.464 11.2998)" clip-path="url(#SVGID_2_)" fill="#F7C215" width="0" height="4.3"/>
	
		<rect x="14" y="6.8" transform="matrix(0.7244 -0.6894 0.6894 0.7244 -2.3362 12.1621)" clip-path="url(#SVGID_2_)" fill="#F7C215" width="0" height="4.3"/>
	
		<rect x="14" y="6.9" transform="matrix(0.7602 -0.6497 0.6497 0.7602 -2.4988 11.2724)" clip-path="url(#SVGID_2_)" fill="#F7C215" width="0" height="4.3"/>
	
		<rect x="14" y="6.9" transform="matrix(0.7248 -0.6889 0.6889 0.7248 -2.3744 12.1341)" clip-path="url(#SVGID_2_)" fill="#F7C215" width="0" height="4.3"/>
	
		<rect x="14" y="6.9" transform="matrix(0.7257 -0.6881 0.6881 0.7257 -2.3966 12.1054)" clip-path="url(#SVGID_2_)" fill="#F7C215" width="0" height="4.3"/>
	
		<rect x="13.9" y="6.9" transform="matrix(0.7422 -0.6702 0.6702 0.7422 -2.4832 11.6978)" clip-path="url(#SVGID_2_)" fill="#F7C215" width="0" height="4.3"/>
	
		<rect x="13.9" y="6.9" transform="matrix(0.7421 -0.6702 0.6702 0.7421 -2.5005 11.6895)" clip-path="url(#SVGID_2_)" fill="#F7C215" width="0" height="4.3"/>
	
		<rect x="13.9" y="7" transform="matrix(0.7422 -0.6702 0.6702 0.7422 -2.5181 11.6801)" clip-path="url(#SVGID_2_)" fill="#F7C215" width="0" height="4.3"/>
	
		<rect x="13.9" y="7" transform="matrix(0.7422 -0.6702 0.6702 0.7422 -2.5354 11.6715)" clip-path="url(#SVGID_2_)" fill="#F7C215" width="0" height="4.3"/>
	
		<rect x="13.9" y="7" transform="matrix(0.7261 -0.6876 0.6876 0.7261 -2.4889 12.0506)" clip-path="url(#SVGID_2_)" fill="#F7C215" width="0" height="4.3"/>
	
		<rect x="13.8" y="7" transform="matrix(0.7422 -0.6702 0.6702 0.7422 -2.5702 11.6541)" clip-path="url(#SVGID_2_)" fill="#F7C215" width="0" height="4.3"/>
	
		<rect x="13.8" y="7" transform="matrix(0.7422 -0.6702 0.6702 0.7422 -2.5877 11.6453)" clip-path="url(#SVGID_2_)" fill="#F7C215" width="0" height="4.3"/>
	
		<rect x="13.8" y="7" transform="matrix(0.7421 -0.6703 0.6703 0.7421 -2.605 11.6375)" clip-path="url(#SVGID_2_)" fill="#F7C215" width="0" height="4.3"/>
	
		<rect x="13.8" y="7.1" transform="matrix(0.7422 -0.6702 0.6702 0.7422 -2.6226 11.6276)" clip-path="url(#SVGID_2_)" fill="#F7C215" width="0" height="4.3"/>
	
		<rect x="13.8" y="7.1" transform="matrix(0.7257 -0.688 0.688 0.7257 -2.5773 12.0172)" clip-path="url(#SVGID_2_)" fill="#F7C215" width="0" height="4.3"/>
	
		<rect x="13.7" y="7.1" transform="matrix(0.7422 -0.6702 0.6702 0.7422 -2.6573 11.6106)" clip-path="url(#SVGID_2_)" fill="#F7C215" width="0" height="4.3"/>
	
		<rect x="13.7" y="7.1" transform="matrix(0.7426 -0.6698 0.6698 0.7426 -2.6761 11.5918)" clip-path="url(#SVGID_2_)" fill="#F7C215" width="0" height="4.3"/>
	
		<rect x="13.7" y="7.1" transform="matrix(0.7417 -0.6707 0.6707 0.7417 -2.6906 11.6038)" clip-path="url(#SVGID_2_)" fill="#F7C215" width="0" height="4.3"/>
	
		<rect x="13.7" y="7.2" transform="matrix(0.7422 -0.6702 0.6702 0.7422 -2.7097 11.584)" clip-path="url(#SVGID_2_)" fill="#F7C215" width="0" height="4.3"/>
	
		<rect x="13.7" y="7.2" transform="matrix(0.7426 -0.6698 0.6698 0.7426 -2.7285 11.5652)" clip-path="url(#SVGID_2_)" fill="#F7C215" width="0" height="4.3"/>
	
		<rect x="13.6" y="7.2" transform="matrix(0.7422 -0.6702 0.6702 0.7422 -2.7448 11.5667)" clip-path="url(#SVGID_2_)" fill="#F7C215" width="0" height="4.3"/>
	
		<rect x="13.6" y="7.2" transform="matrix(0.7257 -0.688 0.688 0.7257 -2.7039 11.9555)" clip-path="url(#SVGID_2_)" fill="#F7C215" width="0" height="4.3"/>
	
		<rect x="13.6" y="7.2" transform="matrix(0.7421 -0.6703 0.6703 0.7421 -2.7794 11.5504)" clip-path="url(#SVGID_2_)" fill="#F7C215" width="0" height="4.3"/>
	
		<rect x="13.6" y="7.2" transform="matrix(0.7422 -0.6702 0.6702 0.7422 -2.7967 11.5404)" clip-path="url(#SVGID_2_)" fill="#F7C215" width="0" height="4.3"/>
	
		<rect x="13.6" y="7.3" transform="matrix(0.7422 -0.6702 0.6702 0.7422 -2.8145 11.5317)" clip-path="url(#SVGID_2_)" fill="#F7C215" width="0" height="4.3"/>
	
		<rect x="13.5" y="7.3" transform="matrix(0.7422 -0.6702 0.6702 0.7422 -2.8315 11.523)" clip-path="url(#SVGID_2_)" fill="#F7C215" width="0" height="4.3"/>
	
		<rect x="13.5" y="7.3" transform="matrix(0.7261 -0.6876 0.6876 0.7261 -2.7961 11.9013)" clip-path="url(#SVGID_2_)" fill="#F7C215" width="0" height="4.3"/>
	
		<rect x="13.5" y="7.3" transform="matrix(0.7422 -0.6702 0.6702 0.7422 -2.8666 11.5058)" clip-path="url(#SVGID_2_)" fill="#F7C215" width="0" height="4.3"/>
	
		<rect x="13.5" y="7.3" transform="matrix(0.7417 -0.6707 0.6707 0.7417 -2.8827 11.5079)" clip-path="url(#SVGID_2_)" fill="#F7C215" width="0" height="4.3"/>
	
		<rect x="13.5" y="7.4" transform="matrix(0.7426 -0.6698 0.6698 0.7426 -2.9027 11.4782)" clip-path="url(#SVGID_2_)" fill="#F7C215" width="0" height="4.3"/>
	
		<rect x="13.4" y="7.4" transform="matrix(0.7422 -0.6702 0.6702 0.7422 -2.9189 11.4795)" clip-path="url(#SVGID_2_)" fill="#F7C215" width="0" height="4.3"/>
	
		<rect x="13.4" y="7.4" transform="matrix(0.7257 -0.688 0.688 0.7257 -2.8849 11.8679)" clip-path="url(#SVGID_2_)" fill="#F7C215" width="0" height="4.3"/>
	
		<rect x="13.4" y="7.4" transform="matrix(0.7426 -0.6698 0.6698 0.7426 -2.9548 11.4522)" clip-path="url(#SVGID_2_)" fill="#F7C215" width="0" height="4.3"/>
	
		<rect x="13.4" y="7.4" transform="matrix(0.7417 -0.6707 0.6707 0.7417 -2.9699 11.4643)" clip-path="url(#SVGID_2_)" fill="#F7C215" width="0" height="4.3"/>
	
		<rect x="13.4" y="7.4" transform="matrix(0.7422 -0.6702 0.6702 0.7422 -2.9886 11.4445)" clip-path="url(#SVGID_2_)" fill="#F7C215" width="0" height="4.3"/>
	
		<rect x="13.3" y="7.5" transform="matrix(0.7422 -0.6702 0.6702 0.7422 -3.006 11.4356)" clip-path="url(#SVGID_2_)" fill="#F7C215" width="0" height="4.3"/>
	
		<rect x="13.3" y="7.5" transform="matrix(0.7261 -0.6876 0.6876 0.7261 -2.9766 11.8136)" clip-path="url(#SVGID_2_)" fill="#F7C215" width="0" height="4.3"/>
	
		<rect x="13.3" y="7.5" transform="matrix(0.7422 -0.6702 0.6702 0.7422 -3.0407 11.4186)" clip-path="url(#SVGID_2_)" fill="#F7C215" width="0" height="4.3"/>
	
		<rect x="13.3" y="7.5" transform="matrix(0.7417 -0.6707 0.6707 0.7417 -3.057 11.4207)" clip-path="url(#SVGID_2_)" fill="#F7C215" width="0" height="4.3"/>
	
		<rect x="13.3" y="7.5" transform="matrix(0.7426 -0.6698 0.6698 0.7426 -3.0767 11.391)" clip-path="url(#SVGID_2_)" fill="#F7C215" width="0" height="4.3"/>
	
		<rect x="13.2" y="7.6" transform="matrix(0.7422 -0.6702 0.6702 0.7422 -3.0931 11.392)" clip-path="url(#SVGID_2_)" fill="#F7C215" width="0" height="4.3"/>
	
		<rect x="13.2" y="7.6" transform="matrix(0.7422 -0.6702 0.6702 0.7422 -3.1105 11.3832)" clip-path="url(#SVGID_2_)" fill="#F7C215" width="0" height="4.3"/>
	
		<rect x="13.2" y="7.6" transform="matrix(0.7426 -0.6698 0.6698 0.7426 -3.1289 11.3647)" clip-path="url(#SVGID_2_)" fill="#F7C215" width="0" height="4.3"/>
	
		<rect x="13.2" y="7.6" transform="matrix(0.7257 -0.688 0.688 0.7257 -3.1018 11.7623)" clip-path="url(#SVGID_2_)" fill="#F7C215" width="0" height="4.3"/>
	
		<rect x="13.2" y="7.6" transform="matrix(0.7417 -0.6707 0.6707 0.7417 -3.1616 11.3682)" clip-path="url(#SVGID_2_)" fill="#F7C215" width="0" height="4.3"/>
	
		<rect x="13.1" y="7.6" transform="matrix(0.7422 -0.6702 0.6702 0.7422 -3.1801 11.3484)" clip-path="url(#SVGID_2_)" fill="#F7C215" width="0" height="4.3"/>
	<polygon clip-path="url(#SVGID_2_)" fill="#F7C215" points="14.6,11.4 14.6,11.4 14.6,11.4 11.7,8.2 11.7,8.2 	"/>
	<polygon clip-path="url(#SVGID_2_)" fill="#F7C215" points="14.5,11.4 11.7,8.3 11.7,8.2 14.6,11.4 	"/>
	<polygon clip-path="url(#SVGID_2_)" fill="#F7C215" points="11.7,8.3 11.6,8.3 14.5,11.4 14.5,11.4 	"/>
	<polygon clip-path="url(#SVGID_2_)" fill="#F7C215" points="14.5,11.4 11.6,8.3 11.6,8.3 14.5,11.4 	"/>
	<polygon clip-path="url(#SVGID_2_)" fill="#F7C215" points="14.4,11.4 11.6,8.3 11.6,8.3 14.5,11.4 	"/>
	<polygon clip-path="url(#SVGID_2_)" fill="#F7C215" points="14.4,11.4 11.6,8.3 11.6,8.3 14.4,11.4 	"/>
	<polygon clip-path="url(#SVGID_2_)" fill="#F7C215" points="14.4,11.4 11.6,8.4 11.6,8.3 14.4,11.4 	"/>
	<polygon clip-path="url(#SVGID_2_)" fill="#F7C215" points="14.3,11.4 11.5,8.4 11.6,8.4 14.4,11.4 	"/>
	<polygon clip-path="url(#SVGID_2_)" fill="#F7C215" points="14.3,11.4 11.5,8.4 11.5,8.4 14.3,11.4 	"/>
	<polygon clip-path="url(#SVGID_2_)" fill="#F7C215" points="14.2,11.4 11.5,8.4 11.5,8.4 14.3,11.4 	"/>
	<polygon clip-path="url(#SVGID_2_)" fill="#F7C215" points="14.2,11.4 11.5,8.4 11.5,8.4 14.2,11.4 	"/>
	<polygon clip-path="url(#SVGID_2_)" fill="#F7C215" points="14.2,11.4 11.5,8.5 11.5,8.4 14.2,11.4 	"/>
	<polygon clip-path="url(#SVGID_2_)" fill="#F7C215" points="14.1,11.4 11.5,8.5 11.5,8.5 14.2,11.4 	"/>
	<polygon clip-path="url(#SVGID_2_)" fill="#F7C215" points="14.1,11.4 11.5,8.6 11.5,8.5 14.1,11.4 	"/>
	<polygon clip-path="url(#SVGID_2_)" fill="#F7C215" points="14.1,11.4 11.5,8.6 11.5,8.6 14.1,11.4 	"/>
	<polygon clip-path="url(#SVGID_2_)" fill="#F7C215" points="14,11.4 11.5,8.6 11.5,8.6 14.1,11.4 	"/>
	<polygon clip-path="url(#SVGID_2_)" fill="#F7C215" points="14,11.4 11.5,8.7 11.5,8.6 14,11.4 	"/>
	<polygon clip-path="url(#SVGID_2_)" fill="#F7C215" points="13.9,11.4 11.5,8.7 11.5,8.7 14,11.4 	"/>
	<polygon clip-path="url(#SVGID_2_)" fill="#F7C215" points="13.9,11.4 11.5,8.8 11.5,8.7 13.9,11.4 	"/>
	<polygon clip-path="url(#SVGID_2_)" fill="#F7C215" points="13.9,11.4 11.5,8.8 11.5,8.8 13.9,11.4 	"/>
	<polygon clip-path="url(#SVGID_2_)" fill="#F7C215" points="13.8,11.4 11.5,8.8 11.5,8.8 13.9,11.4 	"/>
	<polygon clip-path="url(#SVGID_2_)" fill="#F7C215" points="11.5,8.8 13.8,11.4 11.5,11.4 	"/>
</g>
<g>
	<defs>
		<polygon id="SVGID_3_" points="50.5,48.1 52.4,46 55,48 52.9,50.4 		"/>
	</defs>
	<use xlink:href="#SVGID_3_"  overflow="visible" fill="#F7C215"/>
	<clipPath id="SVGID_4_">
		<use xlink:href="#SVGID_3_"  overflow="visible"/>
	</clipPath>
	<polygon clip-path="url(#SVGID_4_)" fill="#F7C215" points="55,48.2 52.9,46 55,46 	"/>
	<polygon clip-path="url(#SVGID_4_)" fill="#F7C215" points="55,48.3 52.8,46 52.9,46 55,48.2 	"/>
	<polygon clip-path="url(#SVGID_4_)" fill="#F7C215" points="55,48.3 52.8,46 52.8,46 55,48.3 	"/>
	<polygon clip-path="url(#SVGID_4_)" fill="#F7C215" points="55,48.4 52.8,46 52.8,46 55,48.3 	"/>
	<polygon clip-path="url(#SVGID_4_)" fill="#F7C215" points="55,48.4 52.7,46 52.8,46 55,48.4 	"/>
	<polygon clip-path="url(#SVGID_4_)" fill="#F7C215" points="55,48.4 52.7,46 52.7,46 55,48.4 	"/>
	<polygon clip-path="url(#SVGID_4_)" fill="#F7C215" points="55,48.5 52.6,46 52.7,46 55,48.4 	"/>
	<polygon clip-path="url(#SVGID_4_)" fill="#F7C215" points="55,48.5 52.6,46 52.6,46 55,48.5 	"/>
	<polygon clip-path="url(#SVGID_4_)" fill="#F7C215" points="55,48.6 52.6,46 52.6,46 55,48.5 	"/>
	<polygon clip-path="url(#SVGID_4_)" fill="#F7C215" points="55,48.6 52.5,46 52.6,46 55,48.6 	"/>
	<polygon clip-path="url(#SVGID_4_)" fill="#F7C215" points="55,48.6 52.5,46 52.5,46 55,48.6 	"/>
	<polygon clip-path="url(#SVGID_4_)" fill="#F7C215" points="55,48.7 52.5,46 52.5,46 55,48.6 	"/>
	<polygon clip-path="url(#SVGID_4_)" fill="#F7C215" points="55,48.7 52.4,46 52.5,46 55,48.7 	"/>
	<polygon clip-path="url(#SVGID_4_)" fill="#F7C215" points="55,48.8 52.4,46 52.4,46 55,48.7 	"/>
	<polygon clip-path="url(#SVGID_4_)" fill="#F7C215" points="55,48.8 52.3,46 52.4,46 55,48.8 	"/>
	<polygon clip-path="url(#SVGID_4_)" fill="#F7C215" points="55,48.8 52.3,46 52.3,46 55,48.8 	"/>
	<polygon clip-path="url(#SVGID_4_)" fill="#F7C215" points="55,48.9 52.3,46 52.3,46 55,48.8 	"/>
	<polygon clip-path="url(#SVGID_4_)" fill="#F7C215" points="55,48.9 52.2,46 52.3,46 55,48.9 	"/>
	<polygon clip-path="url(#SVGID_4_)" fill="#F7C215" points="55,49 52.2,46 52.2,46 55,48.9 	"/>
	<polygon clip-path="url(#SVGID_4_)" fill="#F7C215" points="55,49 52.2,46 52.2,46 55,49 	"/>
	<polygon clip-path="url(#SVGID_4_)" fill="#F7C215" points="55,49 52.1,46 52.2,46 55,49 	"/>
	<polygon clip-path="url(#SVGID_4_)" fill="#F7C215" points="55,49.1 52.1,46 52.1,46 55,49 	"/>
	<polygon clip-path="url(#SVGID_4_)" fill="#F7C215" points="55,49.1 52.1,46 52.1,46 55,49.1 	"/>
	<polygon clip-path="url(#SVGID_4_)" fill="#F7C215" points="55,49.2 52,46 52.1,46 55,49.1 	"/>
	<polygon clip-path="url(#SVGID_4_)" fill="#F7C215" points="55,49.2 54.9,49.2 52,46 52,46 55,49.2 	"/>
	<polygon clip-path="url(#SVGID_4_)" fill="#F7C215" points="54.9,49.2 54.9,49.2 51.9,46 52,46 	"/>
	<polygon clip-path="url(#SVGID_4_)" fill="#F7C215" points="54.9,49.2 54.9,49.2 51.9,46 51.9,46 	"/>
	<polygon clip-path="url(#SVGID_4_)" fill="#F7C215" points="54.9,49.2 54.9,49.2 51.9,46 51.9,46 	"/>
	<polygon clip-path="url(#SVGID_4_)" fill="#F7C215" points="54.9,49.2 54.9,49.3 51.8,46 51.9,46 	"/>
	<polygon clip-path="url(#SVGID_4_)" fill="#F7C215" points="54.9,49.3 54.8,49.3 51.8,46 51.8,46 	"/>
	<polygon clip-path="url(#SVGID_4_)" fill="#F7C215" points="54.8,49.3 54.8,49.3 51.8,46 51.8,46 	"/>
	<polygon clip-path="url(#SVGID_4_)" fill="#F7C215" points="54.8,49.3 54.8,49.3 51.7,46 51.8,46 	"/>
	<polygon clip-path="url(#SVGID_4_)" fill="#F7C215" points="54.8,49.3 54.8,49.3 51.7,46 51.7,46 	"/>
	
		<rect x="53.2" y="45.4" transform="matrix(0.7422 -0.6702 0.6702 0.7422 -18.2176 47.9537)" clip-path="url(#SVGID_4_)" fill="#F7C215" width="0" height="4.6"/>
	
		<rect x="53.2" y="45.4" transform="matrix(0.7417 -0.6707 0.6707 0.7417 -18.2349 47.9927)" clip-path="url(#SVGID_4_)" fill="#F7C215" width="0" height="4.6"/>
	
		<rect x="53.2" y="45.4" transform="matrix(0.7426 -0.6698 0.6698 0.7426 -18.2527 47.8927)" clip-path="url(#SVGID_4_)" fill="#F7C215" width="0" height="4.6"/>
	
		<rect x="53.1" y="45.4" transform="matrix(0.7422 -0.6702 0.6702 0.7422 -18.27 47.9272)" clip-path="url(#SVGID_4_)" fill="#F7C215" width="0" height="4.6"/>
	
		<rect x="53.1" y="45.4" transform="matrix(0.7422 -0.6702 0.6702 0.7422 -18.2875 47.9183)" clip-path="url(#SVGID_4_)" fill="#F7C215" width="0" height="4.6"/>
	
		<rect x="53.1" y="45.5" transform="matrix(0.7426 -0.6698 0.6698 0.7426 -18.3053 47.8663)" clip-path="url(#SVGID_4_)" fill="#F7C215" width="0" height="4.6"/>
	
		<rect x="53.1" y="45.5" transform="matrix(0.7244 -0.6894 0.6894 0.7244 -18.2947 49.7699)" clip-path="url(#SVGID_4_)" fill="#F7C215" width="0" height="4.6"/>
	
		<rect x="53.1" y="45.5" transform="matrix(0.7422 -0.6702 0.6702 0.7422 -18.3405 47.892)" clip-path="url(#SVGID_4_)" fill="#F7C215" width="0" height="4.6"/>
	
		<rect x="53" y="45.5" transform="matrix(0.7426 -0.6698 0.6698 0.7426 -18.358 47.8399)" clip-path="url(#SVGID_4_)" fill="#F7C215" width="0" height="4.6"/>
	
		<rect x="53" y="45.5" transform="matrix(0.7422 -0.6702 0.6702 0.7422 -18.3754 47.8743)" clip-path="url(#SVGID_4_)" fill="#F7C215" width="0" height="4.6"/>
	
		<rect x="53" y="45.6" transform="matrix(0.7422 -0.6702 0.6702 0.7422 -18.3929 47.8655)" clip-path="url(#SVGID_4_)" fill="#F7C215" width="0" height="4.6"/>
	
		<rect x="53" y="45.6" transform="matrix(0.7244 -0.6894 0.6894 0.7244 -18.3859 49.7254)" clip-path="url(#SVGID_4_)" fill="#F7C215" width="0" height="4.6"/>
	
		<rect x="53" y="45.6" transform="matrix(0.7425 -0.6698 0.6698 0.7425 -18.4284 47.8085)" clip-path="url(#SVGID_4_)" fill="#F7C215" width="0" height="4.6"/>
	
		<rect x="52.9" y="45.6" transform="matrix(0.7422 -0.6702 0.6702 0.7422 -18.4459 47.8392)" clip-path="url(#SVGID_4_)" fill="#F7C215" width="0" height="4.6"/>
	
		<rect x="52.9" y="45.6" transform="matrix(0.7422 -0.6702 0.6702 0.7422 -18.4634 47.8303)" clip-path="url(#SVGID_4_)" fill="#F7C215" width="0" height="4.6"/>
	
		<rect x="52.9" y="45.6" transform="matrix(0.7426 -0.6697 0.6697 0.7426 -18.4807 47.7745)" clip-path="url(#SVGID_4_)" fill="#F7C215" width="0" height="4.6"/>
	
		<rect x="52.9" y="45.7" transform="matrix(0.7244 -0.6894 0.6894 0.7244 -18.4774 49.6811)" clip-path="url(#SVGID_4_)" fill="#F7C215" width="0" height="4.6"/>
	
		<rect x="52.9" y="45.7" transform="matrix(0.7422 -0.6702 0.6702 0.7422 -18.5164 47.804)" clip-path="url(#SVGID_4_)" fill="#F7C215" width="0" height="4.6"/>
	
		<rect x="52.8" y="45.7" transform="matrix(0.7426 -0.6698 0.6698 0.7426 -18.5337 47.7519)" clip-path="url(#SVGID_4_)" fill="#F7C215" width="0" height="4.6"/>
	
		<rect x="52.8" y="45.7" transform="matrix(0.7422 -0.6702 0.6702 0.7422 -18.5513 47.7864)" clip-path="url(#SVGID_4_)" fill="#F7C215" width="0" height="4.6"/>
	
		<rect x="52.8" y="45.7" transform="matrix(0.7422 -0.6702 0.6702 0.7422 -18.5688 47.7775)" clip-path="url(#SVGID_4_)" fill="#F7C215" width="0" height="4.6"/>
	
		<rect x="52.8" y="45.8" transform="matrix(0.7421 -0.6703 0.6703 0.7421 -18.5862 47.7732)" clip-path="url(#SVGID_4_)" fill="#F7C215" width="0" height="4.6"/>
	
		<rect x="52.8" y="45.8" transform="matrix(0.7422 -0.6702 0.6702 0.7422 -18.604 47.7599)" clip-path="url(#SVGID_4_)" fill="#F7C215" width="0" height="4.6"/>
	
		<rect x="52.7" y="45.8" transform="matrix(0.7248 -0.6889 0.6889 0.7248 -18.6065 49.5735)" clip-path="url(#SVGID_4_)" fill="#F7C215" width="0" height="4.6"/>
	
		<rect x="52.7" y="45.8" transform="matrix(0.7426 -0.6698 0.6698 0.7426 -18.639 47.6991)" clip-path="url(#SVGID_4_)" fill="#F7C215" width="0" height="4.6"/>
	
		<rect x="52.7" y="45.8" transform="matrix(0.7422 -0.6702 0.6702 0.7422 -18.6567 47.7335)" clip-path="url(#SVGID_4_)" fill="#F7C215" width="0" height="4.6"/>
	
		<rect x="52.7" y="45.8" transform="matrix(0.7417 -0.6707 0.6707 0.7417 -18.6744 47.7725)" clip-path="url(#SVGID_4_)" fill="#F7C215" width="0" height="4.6"/>
	
		<rect x="52.7" y="45.9" transform="matrix(0.7422 -0.6702 0.6702 0.7422 -18.6916 47.7158)" clip-path="url(#SVGID_4_)" fill="#F7C215" width="0" height="4.6"/>
	
		<rect x="52.6" y="45.9" transform="matrix(0.7252 -0.6885 0.6885 0.7252 -18.6984 49.4857)" clip-path="url(#SVGID_4_)" fill="#F7C215" width="0" height="4.6"/>
	
		<rect x="52.6" y="45.9" transform="matrix(0.7422 -0.6702 0.6702 0.7422 -18.7272 47.6983)" clip-path="url(#SVGID_4_)" fill="#F7C215" width="0" height="4.6"/>
	
		<rect x="52.6" y="45.9" transform="matrix(0.7422 -0.6702 0.6702 0.7422 -18.7446 47.6895)" clip-path="url(#SVGID_4_)" fill="#F7C215" width="0" height="4.6"/>
	
		<rect x="52.6" y="45.9" transform="matrix(0.7421 -0.6703 0.6703 0.7421 -18.7621 47.6852)" clip-path="url(#SVGID_4_)" fill="#F7C215" width="0" height="4.6"/>
	
		<rect x="52.6" y="46" transform="matrix(0.7422 -0.6702 0.6702 0.7422 -18.7796 47.6718)" clip-path="url(#SVGID_4_)" fill="#F7C215" width="0" height="4.6"/>
	
		<rect x="52.5" y="46" transform="matrix(0.7248 -0.6889 0.6889 0.7248 -18.7891 49.4848)" clip-path="url(#SVGID_4_)" fill="#F7C215" width="0" height="4.6"/>
	
		<rect x="52.5" y="46" transform="matrix(0.7426 -0.6698 0.6698 0.7426 -18.8147 47.6111)" clip-path="url(#SVGID_4_)" fill="#F7C215" width="0" height="4.6"/>
	
		<rect x="52.5" y="46" transform="matrix(0.7422 -0.6702 0.6702 0.7422 -18.8326 47.6455)" clip-path="url(#SVGID_4_)" fill="#F7C215" width="0" height="4.6"/>
	
		<rect x="52.5" y="46" transform="matrix(0.7417 -0.6707 0.6707 0.7417 -18.8505 47.6844)" clip-path="url(#SVGID_4_)" fill="#F7C215" width="0" height="4.6"/>
	
		<rect x="52.5" y="46" transform="matrix(0.7426 -0.6698 0.6698 0.7426 -18.8671 47.5846)" clip-path="url(#SVGID_4_)" fill="#F7C215" width="0" height="4.6"/>
	
		<rect x="52.4" y="46.1" transform="matrix(0.7422 -0.6702 0.6702 0.7422 -18.885 47.619)" clip-path="url(#SVGID_4_)" fill="#F7C215" width="0" height="4.6"/>
	
		<rect x="52.4" y="46.1" transform="matrix(0.7422 -0.6702 0.6702 0.7422 -18.9024 47.6101)" clip-path="url(#SVGID_4_)" fill="#F7C215" width="0" height="4.6"/>
	
		<rect x="52.4" y="46.1" transform="matrix(0.7252 -0.6885 0.6885 0.7252 -18.9177 49.3794)" clip-path="url(#SVGID_4_)" fill="#F7C215" width="0" height="4.6"/>
	
		<rect x="52.4" y="46.1" transform="matrix(0.7417 -0.6707 0.6707 0.7417 -18.9385 47.6404)" clip-path="url(#SVGID_4_)" fill="#F7C215" width="0" height="4.6"/>
	
		<rect x="52.4" y="46.1" transform="matrix(0.7422 -0.6702 0.6702 0.7422 -18.9554 47.5838)" clip-path="url(#SVGID_4_)" fill="#F7C215" width="0" height="4.6"/>
	
		<rect x="52.3" y="46.2" transform="matrix(0.7422 -0.6702 0.6702 0.7422 -18.9729 47.575)" clip-path="url(#SVGID_4_)" fill="#F7C215" width="0" height="4.6"/>
	
		<rect x="52.3" y="46.2" transform="matrix(0.7425 -0.6698 0.6698 0.7425 -18.9899 47.5266)" clip-path="url(#SVGID_4_)" fill="#F7C215" width="0" height="4.6"/>
	
		<rect x="52.3" y="46.2" transform="matrix(0.7248 -0.6889 0.6889 0.7248 -19.0082 49.3784)" clip-path="url(#SVGID_4_)" fill="#F7C215" width="0" height="4.6"/>
	
		<rect x="52.3" y="46.2" transform="matrix(0.7417 -0.6707 0.6707 0.7417 -19.0265 47.5964)" clip-path="url(#SVGID_4_)" fill="#F7C215" width="0" height="4.6"/>
	
		<rect x="52.3" y="46.2" transform="matrix(0.7426 -0.6697 0.6697 0.7426 -19.0427 47.4929)" clip-path="url(#SVGID_4_)" fill="#F7C215" width="0" height="4.6"/>
	
		<rect x="52.2" y="46.3" transform="matrix(0.7422 -0.6702 0.6702 0.7422 -19.0608 47.531)" clip-path="url(#SVGID_4_)" fill="#F7C215" width="0" height="4.6"/>
	
		<rect x="52.2" y="46.3" transform="matrix(0.7422 -0.6702 0.6702 0.7422 -19.0783 47.5221)" clip-path="url(#SVGID_4_)" fill="#F7C215" width="0" height="4.6"/>
	
		<rect x="52.2" y="46.3" transform="matrix(0.7252 -0.6885 0.6885 0.7252 -19.1001 49.2907)" clip-path="url(#SVGID_4_)" fill="#F7C215" width="0" height="4.6"/>
	
		<rect x="52.2" y="46.3" transform="matrix(0.7417 -0.6707 0.6707 0.7417 -19.1146 47.5524)" clip-path="url(#SVGID_4_)" fill="#F7C215" width="0" height="4.6"/>
	
		<rect x="52.2" y="46.3" transform="matrix(0.7422 -0.6702 0.6702 0.7422 -19.1313 47.4958)" clip-path="url(#SVGID_4_)" fill="#F7C215" width="0" height="4.6"/>
	
		<rect x="52.1" y="46.3" transform="matrix(0.7426 -0.6698 0.6698 0.7426 -19.1481 47.4437)" clip-path="url(#SVGID_4_)" fill="#F7C215" width="0" height="4.6"/>
	
		<rect x="52.1" y="46.4" transform="matrix(0.7422 -0.6702 0.6702 0.7422 -19.1662 47.4781)" clip-path="url(#SVGID_4_)" fill="#F7C215" width="0" height="4.6"/>
	
		<rect x="52.1" y="46.4" transform="matrix(0.7422 -0.6702 0.6702 0.7422 -19.1837 47.4693)" clip-path="url(#SVGID_4_)" fill="#F7C215" width="0" height="4.6"/>
	<polygon clip-path="url(#SVGID_4_)" fill="#F7C215" points="53.6,50.4 53.6,50.4 50.5,47 50.5,47 50.5,47 	"/>
	<polygon clip-path="url(#SVGID_4_)" fill="#F7C215" points="53.6,50.4 53.6,50.4 53.6,50.4 50.5,47.1 50.5,47 	"/>
	<polygon clip-path="url(#SVGID_4_)" fill="#F7C215" points="53.6,50.4 50.5,47.1 50.5,47.1 53.6,50.4 	"/>
	<polygon clip-path="url(#SVGID_4_)" fill="#F7C215" points="53.5,50.4 50.5,47.1 50.5,47.1 53.6,50.4 	"/>
	<polygon clip-path="url(#SVGID_4_)" fill="#F7C215" points="53.5,50.4 50.5,47.2 50.5,47.1 53.5,50.4 	"/>
	<polygon clip-path="url(#SVGID_4_)" fill="#F7C215" points="53.4,50.4 50.5,47.2 50.5,47.2 53.5,50.4 	"/>
	<polygon clip-path="url(#SVGID_4_)" fill="#F7C215" points="53.4,50.4 50.5,47.3 50.5,47.2 53.4,50.4 	"/>
	<polygon clip-path="url(#SVGID_4_)" fill="#F7C215" points="53.4,50.4 50.5,47.3 50.5,47.3 53.4,50.4 	"/>
	<polygon clip-path="url(#SVGID_4_)" fill="#F7C215" points="53.3,50.4 50.5,47.3 50.5,47.3 53.4,50.4 	"/>
	<polygon clip-path="url(#SVGID_4_)" fill="#F7C215" points="53.3,50.4 50.5,47.4 50.5,47.3 53.3,50.4 	"/>
	<polygon clip-path="url(#SVGID_4_)" fill="#F7C215" points="53.3,50.4 50.5,47.4 50.5,47.4 53.3,50.4 	"/>
	<polygon clip-path="url(#SVGID_4_)" fill="#F7C215" points="53.2,50.4 50.5,47.5 50.5,47.4 53.3,50.4 	"/>
	<polygon clip-path="url(#SVGID_4_)" fill="#F7C215" points="53.2,50.4 50.5,47.5 50.5,47.5 53.2,50.4 	"/>
	<polygon clip-path="url(#SVGID_4_)" fill="#F7C215" points="53.1,50.4 50.5,47.5 50.5,47.5 53.2,50.4 	"/>
	<polygon clip-path="url(#SVGID_4_)" fill="#F7C215" points="53.1,50.4 50.5,47.6 50.5,47.5 53.1,50.4 	"/>
	<polygon clip-path="url(#SVGID_4_)" fill="#F7C215" points="53.1,50.4 50.5,47.6 50.5,47.6 53.1,50.4 	"/>
	<polygon clip-path="url(#SVGID_4_)" fill="#F7C215" points="53,50.4 50.5,47.7 50.5,47.6 53.1,50.4 	"/>
	<polygon clip-path="url(#SVGID_4_)" fill="#F7C215" points="53,50.4 50.5,47.7 50.5,47.7 53,50.4 	"/>
	<polygon clip-path="url(#SVGID_4_)" fill="#F7C215" points="53,50.4 50.5,47.7 50.5,47.7 53,50.4 	"/>
	<polygon clip-path="url(#SVGID_4_)" fill="#F7C215" points="52.9,50.4 50.5,47.8 50.5,47.7 53,50.4 	"/>
	<polygon clip-path="url(#SVGID_4_)" fill="#F7C215" points="52.9,50.4 50.5,47.8 50.5,47.8 52.9,50.4 	"/>
	<polygon clip-path="url(#SVGID_4_)" fill="#F7C215" points="50.5,47.8 52.9,50.4 50.5,50.4 	"/>
</g>
<g>
	<defs>
		<polygon id="SVGID_5_" points="15,12.6 16.4,14 17.6,12.9 16.3,11.4 		"/>
	</defs>
	<use xlink:href="#SVGID_5_"  overflow="visible" fill="#F7C215"/>
	<clipPath id="SVGID_6_">
		<use xlink:href="#SVGID_5_"  overflow="visible"/>
	</clipPath>
	<polygon clip-path="url(#SVGID_6_)" fill="#F7C215" points="17.6,12.9 16.2,11.4 17.6,11.4 	"/>
	<polygon clip-path="url(#SVGID_6_)" fill="#F7C215" points="17.6,12.9 16.1,11.4 16.2,11.4 17.6,12.9 	"/>
	<polygon clip-path="url(#SVGID_6_)" fill="#F7C215" points="17.6,13 16.1,11.4 16.1,11.4 17.6,12.9 	"/>
	<polygon clip-path="url(#SVGID_6_)" fill="#F7C215" points="17.6,13 16.1,11.4 16.1,11.4 17.6,13 	"/>
	<polygon clip-path="url(#SVGID_6_)" fill="#F7C215" points="17.6,13 16.1,11.4 16.1,11.4 17.6,13 	"/>
	<polygon clip-path="url(#SVGID_6_)" fill="#F7C215" points="17.6,13 16.1,11.4 16.1,11.4 17.6,13 	"/>
	<polygon clip-path="url(#SVGID_6_)" fill="#F7C215" points="17.6,13 16,11.4 16.1,11.4 17.6,13 	"/>
	<polygon clip-path="url(#SVGID_6_)" fill="#F7C215" points="17.6,13.1 16,11.4 16,11.4 17.6,13 	"/>
	<polygon clip-path="url(#SVGID_6_)" fill="#F7C215" points="17.6,13.1 16,11.4 16,11.4 17.6,13.1 	"/>
	<polygon clip-path="url(#SVGID_6_)" fill="#F7C215" points="17.6,13.1 16,11.4 16,11.4 17.6,13.1 	"/>
	<polygon clip-path="url(#SVGID_6_)" fill="#F7C215" points="16,11.4 17.6,13.1 17.6,13.1 16,11.4 	"/>
	<polygon clip-path="url(#SVGID_6_)" fill="#F7C215" points="17.6,13.1 16,11.4 16,11.4 17.6,13.1 	"/>
	<polygon clip-path="url(#SVGID_6_)" fill="#F7C215" points="17.6,13.2 15.9,11.4 16,11.4 17.6,13.1 	"/>
	<polygon clip-path="url(#SVGID_6_)" fill="#F7C215" points="17.6,13.2 15.9,11.4 15.9,11.4 17.6,13.2 	"/>
	<polygon clip-path="url(#SVGID_6_)" fill="#F7C215" points="17.6,13.2 15.9,11.4 15.9,11.4 17.6,13.2 	"/>
	<polygon clip-path="url(#SVGID_6_)" fill="#F7C215" points="17.6,13.2 15.9,11.4 15.9,11.4 17.6,13.2 	"/>
	<polygon clip-path="url(#SVGID_6_)" fill="#F7C215" points="17.6,13.2 15.9,11.4 15.9,11.4 17.6,13.2 	"/>
	<polygon clip-path="url(#SVGID_6_)" fill="#F7C215" points="17.6,13.2 15.9,11.4 15.9,11.4 17.6,13.2 	"/>
	<polygon clip-path="url(#SVGID_6_)" fill="#F7C215" points="17.6,13.3 15.8,11.4 15.9,11.4 17.6,13.2 	"/>
	<polygon clip-path="url(#SVGID_6_)" fill="#F7C215" points="17.6,13.3 15.8,11.4 15.8,11.4 17.6,13.3 	"/>
	<polygon clip-path="url(#SVGID_6_)" fill="#F7C215" points="15.8,11.4 17.6,13.3 17.6,13.3 15.8,11.4 	"/>
	<polygon clip-path="url(#SVGID_6_)" fill="#F7C215" points="17.6,13.3 15.8,11.4 15.8,11.4 17.6,13.3 	"/>
	<polygon clip-path="url(#SVGID_6_)" fill="#F7C215" points="17.6,13.3 15.8,11.4 15.8,11.4 17.6,13.3 	"/>
	<polygon clip-path="url(#SVGID_6_)" fill="#F7C215" points="17.6,13.4 15.8,11.4 15.8,11.4 17.6,13.3 	"/>
	<polygon clip-path="url(#SVGID_6_)" fill="#F7C215" points="17.6,13.4 15.7,11.4 15.8,11.4 17.6,13.4 	"/>
	<polygon clip-path="url(#SVGID_6_)" fill="#F7C215" points="17.6,13.4 15.7,11.4 15.7,11.4 17.6,13.4 	"/>
	<polygon clip-path="url(#SVGID_6_)" fill="#F7C215" points="17.6,13.4 15.7,11.4 15.7,11.4 17.6,13.4 	"/>
	<polygon clip-path="url(#SVGID_6_)" fill="#F7C215" points="17.6,13.4 15.7,11.4 15.7,11.4 17.6,13.4 	"/>
	<polygon clip-path="url(#SVGID_6_)" fill="#F7C215" points="17.6,13.5 15.7,11.4 15.7,11.4 17.6,13.4 	"/>
	<polygon clip-path="url(#SVGID_6_)" fill="#F7C215" points="15.6,11.4 17.6,13.5 17.6,13.5 15.7,11.4 	"/>
	<polygon clip-path="url(#SVGID_6_)" fill="#F7C215" points="17.6,13.5 15.6,11.4 15.6,11.4 17.6,13.5 	"/>
	<polygon clip-path="url(#SVGID_6_)" fill="#F7C215" points="17.6,13.5 15.6,11.4 15.6,11.4 17.6,13.5 	"/>
	<polygon clip-path="url(#SVGID_6_)" fill="#F7C215" points="17.6,13.5 15.6,11.4 15.6,11.4 17.6,13.5 	"/>
	<polygon clip-path="url(#SVGID_6_)" fill="#F7C215" points="17.6,13.6 15.6,11.4 15.6,11.4 17.6,13.5 	"/>
	<polygon clip-path="url(#SVGID_6_)" fill="#F7C215" points="17.6,13.6 15.6,11.4 15.6,11.4 17.6,13.6 	"/>
	<polygon clip-path="url(#SVGID_6_)" fill="#F7C215" points="17.6,13.6 15.5,11.4 15.6,11.4 15.6,11.4 17.6,13.6 	"/>
	<polygon clip-path="url(#SVGID_6_)" fill="#F7C215" points="17.6,13.6 15.5,11.4 15.5,11.4 17.6,13.6 	"/>
	<polygon clip-path="url(#SVGID_6_)" fill="#F7C215" points="17.6,13.6 17.6,13.6 15.5,11.4 15.5,11.4 17.6,13.6 	"/>
	
		<rect x="16.5" y="11" transform="matrix(0.7448 -0.6673 0.6673 0.7448 -4.1195 14.2348)" clip-path="url(#SVGID_6_)" fill="#F7C215" width="0" height="3"/>
	
		<rect x="16.5" y="11" transform="matrix(0.7439 -0.6683 0.6683 0.7439 -4.1253 14.2598)" clip-path="url(#SVGID_6_)" fill="#F7C215" width="0" height="3"/>
	
		<rect x="16.5" y="11" transform="matrix(0.744 -0.6682 0.6682 0.744 -4.1338 14.2526)" clip-path="url(#SVGID_6_)" fill="#F7C215" width="0" height="3"/>
	
		<rect x="16.5" y="11" transform="matrix(0.7439 -0.6683 0.6683 0.7439 -4.1418 14.2513)" clip-path="url(#SVGID_6_)" fill="#F7C215" width="0" height="3"/>
	
		<rect x="16.5" y="11" transform="matrix(0.7088 -0.7054 0.7054 0.7088 -4.036 15.2985)" clip-path="url(#SVGID_6_)" fill="#F7C215" width="0" height="3"/>
	
		<rect x="16.5" y="11" transform="matrix(0.743 -0.6693 0.6693 0.743 -4.156 14.2695)" clip-path="url(#SVGID_6_)" fill="#F7C215" width="0" height="3"/>
	
		<rect x="16.5" y="11" transform="matrix(0.7438 -0.6684 0.6684 0.7438 -4.1663 14.2402)" clip-path="url(#SVGID_6_)" fill="#F7C215" width="0" height="3"/>
	
		<rect x="16.5" y="11" transform="matrix(0.744 -0.6682 0.6682 0.744 -4.1748 14.2321)" clip-path="url(#SVGID_6_)" fill="#F7C215" width="0" height="3"/>
	
		<rect x="16.5" y="11.1" transform="matrix(0.7439 -0.6683 0.6683 0.7439 -4.1829 14.2296)" clip-path="url(#SVGID_6_)" fill="#F7C215" width="0" height="3"/>
	
		<rect x="16.5" y="11.1" transform="matrix(0.7448 -0.6673 0.6673 0.7448 -4.1934 14.1974)" clip-path="url(#SVGID_6_)" fill="#F7C215" width="0" height="3"/>
	
		<rect x="16.4" y="11.1" transform="matrix(0.7068 -0.7074 0.7074 0.7068 -4.0815 15.3319)" clip-path="url(#SVGID_6_)" fill="#F7C215" width="0" height="3"/>
	
		<rect x="16.4" y="11.1" transform="matrix(0.7448 -0.6673 0.6673 0.7448 -4.2097 14.1893)" clip-path="url(#SVGID_6_)" fill="#F7C215" width="0" height="3"/>
	
		<rect x="16.4" y="11.1" transform="matrix(0.743 -0.6693 0.6693 0.743 -4.2136 14.2406)" clip-path="url(#SVGID_6_)" fill="#F7C215" width="0" height="3"/>
	
		<rect x="16.4" y="11.1" transform="matrix(0.7448 -0.6673 0.6673 0.7448 -4.2262 14.1809)" clip-path="url(#SVGID_6_)" fill="#F7C215" width="0" height="3"/>
	
		<rect x="16.4" y="11.1" transform="matrix(0.7439 -0.6683 0.6683 0.7439 -4.2322 14.2058)" clip-path="url(#SVGID_6_)" fill="#F7C215" width="0" height="3"/>
	
		<rect x="16.4" y="11.1" transform="matrix(0.743 -0.6693 0.6693 0.743 -4.2383 14.2282)" clip-path="url(#SVGID_6_)" fill="#F7C215" width="0" height="3"/>
	
		<rect x="16.4" y="11.1" transform="matrix(0.7448 -0.6673 0.6673 0.7448 -4.2507 14.1685)" clip-path="url(#SVGID_6_)" fill="#F7C215" width="0" height="3"/>
	
		<rect x="16.4" y="11.1" transform="matrix(0.7439 -0.6683 0.6683 0.7439 -4.2568 14.1935)" clip-path="url(#SVGID_6_)" fill="#F7C215" width="0" height="3"/>
	
		<rect x="16.4" y="11.1" transform="matrix(0.7078 -0.7064 0.7064 0.7078 -4.1565 15.2692)" clip-path="url(#SVGID_6_)" fill="#F7C215" width="0" height="3"/>
	
		<rect x="16.4" y="11.1" transform="matrix(0.7438 -0.6684 0.6684 0.7438 -4.2731 14.1866)" clip-path="url(#SVGID_6_)" fill="#F7C215" width="0" height="3"/>
	
		<rect x="16.4" y="11.2" transform="matrix(0.744 -0.6682 0.6682 0.744 -4.2816 14.1782)" clip-path="url(#SVGID_6_)" fill="#F7C215" width="0" height="3"/>
	
		<rect x="16.3" y="11.2" transform="matrix(0.7439 -0.6683 0.6683 0.7439 -4.2896 14.176)" clip-path="url(#SVGID_6_)" fill="#F7C215" width="0" height="3"/>
	
		<rect x="16.3" y="11.2" transform="matrix(0.7439 -0.6683 0.6683 0.7439 -4.2978 14.173)" clip-path="url(#SVGID_6_)" fill="#F7C215" width="0" height="3"/>
	
		<rect x="16.3" y="11.2" transform="matrix(0.744 -0.6682 0.6682 0.744 -4.3063 14.1659)" clip-path="url(#SVGID_6_)" fill="#F7C215" width="0" height="3"/>
	
		<rect x="16.3" y="11.2" transform="matrix(0.7078 -0.7064 0.7064 0.7078 -4.2098 15.2442)" clip-path="url(#SVGID_6_)" fill="#F7C215" width="0" height="3"/>
	
		<rect x="16.3" y="11.2" transform="matrix(0.744 -0.6682 0.6682 0.744 -4.3226 14.1578)" clip-path="url(#SVGID_6_)" fill="#F7C215" width="0" height="3"/>
	
		<rect x="16.3" y="11.2" transform="matrix(0.7439 -0.6683 0.6683 0.7439 -4.3307 14.1565)" clip-path="url(#SVGID_6_)" fill="#F7C215" width="0" height="3"/>
	
		<rect x="16.3" y="11.2" transform="matrix(0.7448 -0.6673 0.6673 0.7448 -4.3409 14.1231)" clip-path="url(#SVGID_6_)" fill="#F7C215" width="0" height="3"/>
	
		<rect x="16.3" y="11.2" transform="matrix(0.743 -0.6693 0.6693 0.743 -4.3454 14.1743)" clip-path="url(#SVGID_6_)" fill="#F7C215" width="0" height="3"/>
	
		<rect x="16.3" y="11.2" transform="matrix(0.7448 -0.6673 0.6673 0.7448 -4.3573 14.1149)" clip-path="url(#SVGID_6_)" fill="#F7C215" width="0" height="3"/>
	
		<rect x="16.3" y="11.2" transform="matrix(0.7078 -0.7064 0.7064 0.7078 -4.263 15.2192)" clip-path="url(#SVGID_6_)" fill="#F7C215" width="0" height="3"/>
	
		<rect x="16.3" y="11.3" transform="matrix(0.7805 -0.6251 0.6251 0.7805 -4.4163 12.9659)" clip-path="url(#SVGID_6_)" fill="#F7C215" width="0" height="3"/>
	
		<rect x="16.2" y="11.3" transform="matrix(0.6707 -0.7417 0.7417 0.6707 -4.1295 16.2589)" clip-path="url(#SVGID_6_)" fill="#F7C215" width="0" height="3"/>
	
		<rect x="16.2" y="11.3" transform="matrix(0.7805 -0.6251 0.6251 0.7805 -4.4312 12.958)" clip-path="url(#SVGID_6_)" fill="#F7C215" width="0" height="3"/>
	
		<rect x="16.2" y="11.3" transform="matrix(0.7088 -0.7054 0.7054 0.7088 -4.3018 15.1749)" clip-path="url(#SVGID_6_)" fill="#F7C215" width="0" height="3"/>
	
		<rect x="16.2" y="11.3" transform="matrix(0.7813 -0.6242 0.6242 0.7813 -4.4464 12.9239)" clip-path="url(#SVGID_6_)" fill="#F7C215" width="0" height="3"/>
	
		<rect x="16.2" y="11.3" transform="matrix(0.7078 -0.7064 0.7064 0.7078 -4.3163 15.1943)" clip-path="url(#SVGID_6_)" fill="#F7C215" width="0" height="3"/>
	
		<rect x="16.2" y="11.3" transform="matrix(0.7813 -0.6242 0.6242 0.7813 -4.4613 12.916)" clip-path="url(#SVGID_6_)" fill="#F7C215" width="0" height="3"/>
	
		<rect x="16.2" y="11.3" transform="matrix(0.7078 -0.7064 0.7064 0.7078 -4.3342 15.1857)" clip-path="url(#SVGID_6_)" fill="#F7C215" width="0" height="3"/>
	
		<rect x="16.2" y="11.3" transform="matrix(0.7481 -0.6636 0.6636 0.7481 -4.4454 13.9725)" clip-path="url(#SVGID_6_)" fill="#F7C215" width="0" height="3"/>
	
		<rect x="16.2" y="11.3" transform="matrix(0.7078 -0.7064 0.7064 0.7078 -4.3519 15.1775)" clip-path="url(#SVGID_6_)" fill="#F7C215" width="0" height="3"/>
	
		<rect x="16.2" y="11.3" transform="matrix(0.7815 -0.6239 0.6239 0.7815 -4.4913 12.8934)" clip-path="url(#SVGID_6_)" fill="#F7C215" width="0" height="3"/>
	
		<rect x="16.1" y="11.3" transform="matrix(0.7078 -0.7064 0.7064 0.7078 -4.3697 15.1689)" clip-path="url(#SVGID_6_)" fill="#F7C215" width="0" height="3"/>
	
		<rect x="16.1" y="11.4" transform="matrix(0.7823 -0.6229 0.6229 0.7823 -4.5063 12.8593)" clip-path="url(#SVGID_6_)" fill="#F7C215" width="0" height="3"/>
	<polygon clip-path="url(#SVGID_6_)" fill="#F7C215" points="17.2,14 17.2,14 17.1,14 15.1,11.8 15.1,11.8 	"/>
	<polygon clip-path="url(#SVGID_6_)" fill="#F7C215" points="15.1,11.8 15.1,11.8 17.1,14 17.1,14 	"/>
	<polygon clip-path="url(#SVGID_6_)" fill="#F7C215" points="17.1,14 15.1,11.8 15.1,11.8 17.1,14 	"/>
	<polygon clip-path="url(#SVGID_6_)" fill="#F7C215" points="17.1,14 15.1,11.8 15.1,11.8 17.1,14 	"/>
	<polygon clip-path="url(#SVGID_6_)" fill="#F7C215" points="17.1,14 15.1,11.8 15.1,11.8 17.1,14 	"/>
	<polygon clip-path="url(#SVGID_6_)" fill="#F7C215" points="17.1,14 15.1,11.8 15.1,11.8 17.1,14 	"/>
	<polygon clip-path="url(#SVGID_6_)" fill="#F7C215" points="17,14 15,11.8 15.1,11.8 17.1,14 	"/>
	<polygon clip-path="url(#SVGID_6_)" fill="#F7C215" points="15,11.8 15,11.8 17,14 17,14 	"/>
	<polygon clip-path="url(#SVGID_6_)" fill="#F7C215" points="17,14 15,11.8 15,11.8 17,14 	"/>
	<polygon clip-path="url(#SVGID_6_)" fill="#F7C215" points="17,14 15,11.8 15,11.8 17,14 	"/>
	<polygon clip-path="url(#SVGID_6_)" fill="#F7C215" points="17,14 15,11.9 15,11.8 17,14 	"/>
	<polygon clip-path="url(#SVGID_6_)" fill="#F7C215" points="17,14 15,11.9 15,11.9 17,14 	"/>
	<polygon clip-path="url(#SVGID_6_)" fill="#F7C215" points="16.9,14 15,11.9 15,11.9 17,14 	"/>
	<polygon clip-path="url(#SVGID_6_)" fill="#F7C215" points="16.9,14 15,11.9 15,11.9 15,11.9 16.9,14 	"/>
	<polygon clip-path="url(#SVGID_6_)" fill="#F7C215" points="15,11.9 16.9,14 16.9,14 15,11.9 	"/>
	<polygon clip-path="url(#SVGID_6_)" fill="#F7C215" points="16.9,14 15,11.9 15,11.9 16.9,14 	"/>
	<polygon clip-path="url(#SVGID_6_)" fill="#F7C215" points="16.9,14 15,11.9 15,11.9 16.9,14 	"/>
	<polygon clip-path="url(#SVGID_6_)" fill="#F7C215" points="16.9,14 15,12 15,11.9 16.9,14 	"/>
	<polygon clip-path="url(#SVGID_6_)" fill="#F7C215" points="16.8,14 15,12 15,12 16.9,14 	"/>
	<polygon clip-path="url(#SVGID_6_)" fill="#F7C215" points="16.8,14 15,12 15,12 16.8,14 	"/>
	<polygon clip-path="url(#SVGID_6_)" fill="#F7C215" points="15,12 16.8,14 16.8,14 15,12 	"/>
	<polygon clip-path="url(#SVGID_6_)" fill="#F7C215" points="16.8,14 15,12 15,12 16.8,14 	"/>
	<polygon clip-path="url(#SVGID_6_)" fill="#F7C215" points="16.8,14 15,12.1 15,12 16.8,14 	"/>
	<polygon clip-path="url(#SVGID_6_)" fill="#F7C215" points="16.7,14 15,12.1 15,12.1 16.8,14 	"/>
	<polygon clip-path="url(#SVGID_6_)" fill="#F7C215" points="16.7,14 15,12.1 15,12.1 16.7,14 	"/>
	<polygon clip-path="url(#SVGID_6_)" fill="#F7C215" points="16.7,14 15,12.1 15,12.1 16.7,14 	"/>
	<polygon clip-path="url(#SVGID_6_)" fill="#F7C215" points="15,12.1 16.7,14 16.7,14 15,12.1 	"/>
	<polygon clip-path="url(#SVGID_6_)" fill="#F7C215" points="16.7,14 15,12.2 15,12.1 16.7,14 	"/>
	<polygon clip-path="url(#SVGID_6_)" fill="#F7C215" points="16.7,14 15,12.2 15,12.2 16.7,14 	"/>
	<polygon clip-path="url(#SVGID_6_)" fill="#F7C215" points="16.6,14 15,12.2 15,12.2 16.7,14 	"/>
	<polygon clip-path="url(#SVGID_6_)" fill="#F7C215" points="15,12.2 16.6,14 16.6,14 15,12.2 	"/>
	<polygon clip-path="url(#SVGID_6_)" fill="#F7C215" points="16.6,14 15,12.2 15,12.2 16.6,14 	"/>
	<polygon clip-path="url(#SVGID_6_)" fill="#F7C215" points="15,12.2 16.6,14 16.6,14 15,12.2 	"/>
	<polygon clip-path="url(#SVGID_6_)" fill="#F7C215" points="16.6,14 15,12.3 15,12.2 16.6,14 	"/>
	<polygon clip-path="url(#SVGID_6_)" fill="#F7C215" points="16.6,14 15,12.3 15,12.3 16.6,14 	"/>
	<polygon clip-path="url(#SVGID_6_)" fill="#F7C215" points="16.5,14 15,12.3 15,12.3 16.6,14 	"/>
	<polygon clip-path="url(#SVGID_6_)" fill="#F7C215" points="16.5,14 15,12.3 15,12.3 16.5,14 	"/>
	<polygon clip-path="url(#SVGID_6_)" fill="#F7C215" points="16.5,14 15,12.3 15,12.3 16.5,14 	"/>
	<polygon clip-path="url(#SVGID_6_)" fill="#F7C215" points="15,12.4 16.5,14 16.5,14 15,12.3 	"/>
	<polygon clip-path="url(#SVGID_6_)" fill="#F7C215" points="16.5,14 15,12.4 15,12.4 16.5,14 	"/>
	<polygon clip-path="url(#SVGID_6_)" fill="#F7C215" points="16.5,14 15,12.4 15,12.4 16.5,14 	"/>
	<polygon clip-path="url(#SVGID_6_)" fill="#F7C215" points="16.4,14 15,12.4 15,12.4 16.5,14 	"/>
	<polygon clip-path="url(#SVGID_6_)" fill="#F7C215" points="16.4,14 15,12.4 15,12.4 16.4,14 	"/>
	<polygon clip-path="url(#SVGID_6_)" fill="#F7C215" points="15,12.4 16.4,14 15,14 	"/>
</g>
<g>
	<defs>
		<polygon id="SVGID_7_" points="47.9,45.4 49.4,46.9 50.5,45.7 48.9,44.4 		"/>
	</defs>
	<use xlink:href="#SVGID_7_"  overflow="visible" fill="#F7C215"/>
	<clipPath id="SVGID_8_">
		<use xlink:href="#SVGID_7_"  overflow="visible"/>
	</clipPath>
	<polygon clip-path="url(#SVGID_8_)" fill="#F7C215" points="50.5,45.8 49.1,44.4 50.5,44.4 	"/>
	<polygon clip-path="url(#SVGID_8_)" fill="#F7C215" points="50.5,45.8 49.1,44.4 49.1,44.4 50.5,45.8 	"/>
	<polygon clip-path="url(#SVGID_8_)" fill="#F7C215" points="50.5,45.9 49.1,44.4 49.1,44.4 50.5,45.8 	"/>
	<polygon clip-path="url(#SVGID_8_)" fill="#F7C215" points="50.5,45.9 49.1,44.4 49.1,44.4 50.5,45.9 	"/>
	<polygon clip-path="url(#SVGID_8_)" fill="#F7C215" points="50.5,45.9 49.1,44.4 49.1,44.4 50.5,45.9 	"/>
	<polygon clip-path="url(#SVGID_8_)" fill="#F7C215" points="50.5,45.9 49.1,44.4 49.1,44.4 50.5,45.9 	"/>
	<polygon clip-path="url(#SVGID_8_)" fill="#F7C215" points="50.5,45.9 49,44.4 49.1,44.4 50.5,45.9 	"/>
	<polygon clip-path="url(#SVGID_8_)" fill="#F7C215" points="50.5,46 49,44.4 49,44.4 50.5,45.9 	"/>
	<polygon clip-path="url(#SVGID_8_)" fill="#F7C215" points="50.5,46 49,44.4 49,44.4 50.5,46 	"/>
	<polygon clip-path="url(#SVGID_8_)" fill="#F7C215" points="50.5,46 49,44.4 49,44.4 50.5,46 	"/>
	<polygon clip-path="url(#SVGID_8_)" fill="#F7C215" points="50.5,46 49,44.4 49,44.4 50.5,46 	"/>
	<polygon clip-path="url(#SVGID_8_)" fill="#F7C215" points="50.5,46 49,44.4 49,44.4 50.5,46 	"/>
	<polygon clip-path="url(#SVGID_8_)" fill="#F7C215" points="50.5,46 48.9,44.4 49,44.4 50.5,46 	"/>
	<polygon clip-path="url(#SVGID_8_)" fill="#F7C215" points="50.5,46.1 48.9,44.4 48.9,44.4 50.5,46 	"/>
	<polygon clip-path="url(#SVGID_8_)" fill="#F7C215" points="50.5,46.1 48.9,44.4 48.9,44.4 50.5,46.1 	"/>
	<polygon clip-path="url(#SVGID_8_)" fill="#F7C215" points="50.5,46.1 48.9,44.4 48.9,44.4 50.5,46.1 	"/>
	<polygon clip-path="url(#SVGID_8_)" fill="#F7C215" points="50.5,46.1 48.9,44.4 48.9,44.4 50.5,46.1 	"/>
	<polygon clip-path="url(#SVGID_8_)" fill="#F7C215" points="50.5,46.1 48.9,44.4 48.9,44.4 50.5,46.1 	"/>
	<polygon clip-path="url(#SVGID_8_)" fill="#F7C215" points="50.5,46.2 48.8,44.4 48.9,44.4 50.5,46.1 	"/>
	<polygon clip-path="url(#SVGID_8_)" fill="#F7C215" points="50.5,46.2 48.8,44.4 48.8,44.4 50.5,46.2 	"/>
	<polygon clip-path="url(#SVGID_8_)" fill="#F7C215" points="48.8,44.4 50.5,46.2 50.5,46.2 48.8,44.4 	"/>
	<polygon clip-path="url(#SVGID_8_)" fill="#F7C215" points="50.5,46.2 48.8,44.4 48.8,44.4 50.5,46.2 	"/>
	<polygon clip-path="url(#SVGID_8_)" fill="#F7C215" points="50.5,46.2 48.8,44.4 48.8,44.4 50.5,46.2 	"/>
	<polygon clip-path="url(#SVGID_8_)" fill="#F7C215" points="50.5,46.2 48.8,44.4 48.8,44.4 50.5,46.2 	"/>
	<polygon clip-path="url(#SVGID_8_)" fill="#F7C215" points="50.5,46.3 48.7,44.4 48.8,44.4 50.5,46.2 	"/>
	<polygon clip-path="url(#SVGID_8_)" fill="#F7C215" points="48.7,44.4 50.5,46.3 50.5,46.3 48.7,44.4 	"/>
	<polygon clip-path="url(#SVGID_8_)" fill="#F7C215" points="50.5,46.3 48.7,44.4 48.7,44.4 50.5,46.3 	"/>
	<polygon clip-path="url(#SVGID_8_)" fill="#F7C215" points="50.5,46.3 48.7,44.4 48.7,44.4 50.5,46.3 	"/>
	<polygon clip-path="url(#SVGID_8_)" fill="#F7C215" points="50.5,46.3 48.7,44.4 48.7,44.4 50.5,46.3 	"/>
	<polygon clip-path="url(#SVGID_8_)" fill="#F7C215" points="48.7,44.4 50.5,46.4 50.5,46.3 48.7,44.4 	"/>
	<polygon clip-path="url(#SVGID_8_)" fill="#F7C215" points="50.5,46.4 48.6,44.4 48.7,44.4 50.5,46.4 	"/>
	<polygon clip-path="url(#SVGID_8_)" fill="#F7C215" points="50.5,46.4 48.6,44.4 48.6,44.4 50.5,46.4 	"/>
	<polygon clip-path="url(#SVGID_8_)" fill="#F7C215" points="48.6,44.4 50.5,46.4 50.5,46.4 48.6,44.4 	"/>
	<polygon clip-path="url(#SVGID_8_)" fill="#F7C215" points="50.5,46.4 48.6,44.4 48.6,44.4 50.5,46.4 	"/>
	<polygon clip-path="url(#SVGID_8_)" fill="#F7C215" points="50.5,46.4 48.6,44.4 48.6,44.4 50.5,46.4 	"/>
	<polygon clip-path="url(#SVGID_8_)" fill="#F7C215" points="50.5,46.5 48.6,44.4 48.6,44.4 50.5,46.4 	"/>
	<polygon clip-path="url(#SVGID_8_)" fill="#F7C215" points="50.5,46.5 48.5,44.4 48.6,44.4 50.5,46.5 	"/>
	<polygon clip-path="url(#SVGID_8_)" fill="#F7C215" points="48.5,44.4 50.5,46.5 50.5,46.5 48.5,44.4 	"/>
	<polygon clip-path="url(#SVGID_8_)" fill="#F7C215" points="50.5,46.5 48.5,44.4 48.5,44.4 50.5,46.5 	"/>
	<polygon clip-path="url(#SVGID_8_)" fill="#F7C215" points="50.5,46.5 50.5,46.5 48.5,44.4 48.5,44.4 50.5,46.5 	"/>
	<polygon clip-path="url(#SVGID_8_)" fill="#F7C215" points="48.5,44.4 50.5,46.5 50.5,46.5 48.5,44.4 	"/>
	<polygon clip-path="url(#SVGID_8_)" fill="#F7C215" points="50.5,46.5 50.5,46.6 48.5,44.4 48.5,44.4 	"/>
	<polygon clip-path="url(#SVGID_8_)" fill="#F7C215" points="50.5,46.6 50.5,46.6 48.4,44.4 48.5,44.4 	"/>
	<polygon clip-path="url(#SVGID_8_)" fill="#F7C215" points="48.4,44.4 50.4,46.6 50.5,46.6 48.4,44.4 	"/>
	<polygon clip-path="url(#SVGID_8_)" fill="#F7C215" points="50.4,46.6 50.4,46.6 48.4,44.4 48.4,44.4 	"/>
	<polygon clip-path="url(#SVGID_8_)" fill="#F7C215" points="50.4,46.6 50.4,46.6 48.4,44.4 48.4,44.4 	"/>
	<polygon clip-path="url(#SVGID_8_)" fill="#F7C215" points="50.4,46.6 50.4,46.6 48.4,44.4 48.4,44.4 	"/>
	<polygon clip-path="url(#SVGID_8_)" fill="#F7C215" points="50.4,46.6 50.4,46.6 48.4,44.4 48.4,44.4 	"/>
	<polygon clip-path="url(#SVGID_8_)" fill="#F7C215" points="48.3,44.4 50.4,46.6 50.4,46.6 48.4,44.4 	"/>
	<polygon clip-path="url(#SVGID_8_)" fill="#F7C215" points="50.4,46.6 50.4,46.6 48.3,44.4 48.3,44.4 	"/>
	<polygon clip-path="url(#SVGID_8_)" fill="#F7C215" points="50.4,46.6 50.4,46.6 48.3,44.4 48.3,44.4 	"/>
	<polygon clip-path="url(#SVGID_8_)" fill="#F7C215" points="48.3,44.4 50.4,46.6 50.4,46.6 48.3,44.4 	"/>
	<polygon clip-path="url(#SVGID_8_)" fill="#F7C215" points="50.4,46.6 50.4,46.6 48.3,44.4 48.3,44.4 	"/>
	<polygon clip-path="url(#SVGID_8_)" fill="#F7C215" points="50.4,46.6 50.4,46.7 48.3,44.4 48.3,44.4 	"/>
	<polygon clip-path="url(#SVGID_8_)" fill="#F7C215" points="48.2,44.4 50.3,46.7 50.4,46.7 48.3,44.4 	"/>
	<polygon clip-path="url(#SVGID_8_)" fill="#F7C215" points="50.3,46.7 50.3,46.7 48.2,44.4 48.2,44.4 	"/>
	<polygon clip-path="url(#SVGID_8_)" fill="#F7C215" points="50.3,46.7 50.3,46.7 48.2,44.4 48.2,44.4 	"/>
	<polygon clip-path="url(#SVGID_8_)" fill="#F7C215" points="50.3,46.7 50.3,46.7 48.2,44.4 48.2,44.4 48.2,44.4 	"/>
	
		<rect x="49.2" y="44" transform="matrix(0.7805 -0.6251 0.6251 0.7805 -17.6523 40.7811)" clip-path="url(#SVGID_8_)" fill="#F7C215" width="0" height="3.2"/>
	
		<rect x="49.2" y="44" transform="matrix(0.7088 -0.7054 0.7054 0.7088 -17.7835 47.9925)" clip-path="url(#SVGID_8_)" fill="#F7C215" width="0" height="3.2"/>
	
		<rect x="49.2" y="44" transform="matrix(0.743 -0.6693 0.6693 0.743 -17.8309 44.6531)" clip-path="url(#SVGID_8_)" fill="#F7C215" width="0" height="3.2"/>
	
		<rect x="49.2" y="44" transform="matrix(0.7823 -0.6229 0.6229 0.7823 -17.6605 40.5816)" clip-path="url(#SVGID_8_)" fill="#F7C215" width="0" height="3.2"/>
	
		<rect x="49.2" y="44" transform="matrix(0.7078 -0.7064 0.7064 0.7078 -17.8058 48.0754)" clip-path="url(#SVGID_8_)" fill="#F7C215" width="0" height="3.2"/>
	
		<rect x="49.2" y="44" transform="matrix(0.744 -0.6682 0.6682 0.744 -17.8533 44.5463)" clip-path="url(#SVGID_8_)" fill="#F7C215" width="0" height="3.2"/>
	
		<rect x="49.2" y="44" transform="matrix(0.7078 -0.7064 0.7064 0.7078 -17.8233 48.0675)" clip-path="url(#SVGID_8_)" fill="#F7C215" width="0" height="3.2"/>
	
		<rect x="49.2" y="44" transform="matrix(0.7805 -0.6251 0.6251 0.7805 -17.7033 40.754)" clip-path="url(#SVGID_8_)" fill="#F7C215" width="0" height="3.2"/>
	
		<rect x="49.2" y="44" transform="matrix(0.7088 -0.7054 0.7054 0.7088 -17.8437 47.964)" clip-path="url(#SVGID_8_)" fill="#F7C215" width="0" height="3.2"/>
	
		<rect x="49.2" y="44" transform="matrix(0.7439 -0.6683 0.6683 0.7439 -17.8853 44.5399)" clip-path="url(#SVGID_8_)" fill="#F7C215" width="0" height="3.2"/>
	
		<rect x="49.2" y="44" transform="matrix(0.7481 -0.6636 0.6636 0.7481 -17.8854 44.1125)" clip-path="url(#SVGID_8_)" fill="#F7C215" width="0" height="3.2"/>
	
		<rect x="49.1" y="44" transform="matrix(0.7439 -0.6683 0.6683 0.7439 -17.9009 44.5319)" clip-path="url(#SVGID_8_)" fill="#F7C215" width="0" height="3.2"/>
	
		<rect x="49.1" y="44.1" transform="matrix(0.7078 -0.7064 0.7064 0.7078 -17.8747 48.0433)" clip-path="url(#SVGID_8_)" fill="#F7C215" width="0" height="3.2"/>
	
		<rect x="49.1" y="44.1" transform="matrix(0.7439 -0.6683 0.6683 0.7439 -17.9173 44.5238)" clip-path="url(#SVGID_8_)" fill="#F7C215" width="0" height="3.2"/>
	
		<rect x="49.1" y="44.1" transform="matrix(0.749 -0.6626 0.6626 0.749 -17.9144 44.0019)" clip-path="url(#SVGID_8_)" fill="#F7C215" width="0" height="3.2"/>
	
		<rect x="49.1" y="44.1" transform="matrix(0.743 -0.6693 0.6693 0.743 -17.9341 44.6014)" clip-path="url(#SVGID_8_)" fill="#F7C215" width="0" height="3.2"/>
	
		<rect x="49.1" y="44.1" transform="matrix(0.7448 -0.6673 0.6673 0.7448 -17.9393 44.417)" clip-path="url(#SVGID_8_)" fill="#F7C215" width="0" height="3.2"/>
	
		<rect x="49.1" y="44.1" transform="matrix(0.7469 -0.6649 0.6649 0.7469 -17.9428 44.1985)" clip-path="url(#SVGID_8_)" fill="#F7C215" width="0" height="3.2"/>
	
		<rect x="49.1" y="44.1" transform="matrix(0.7079 -0.7063 0.7063 0.7079 -17.9263 48.0114)" clip-path="url(#SVGID_8_)" fill="#F7C215" width="0" height="3.2"/>
	
		<rect x="49.1" y="44.1" transform="matrix(0.7448 -0.6673 0.6673 0.7448 -17.963 44.4051)" clip-path="url(#SVGID_8_)" fill="#F7C215" width="0" height="3.2"/>
	
		<rect x="49.1" y="44.1" transform="matrix(0.7805 -0.6251 0.6251 0.7805 -17.7974 40.7032)" clip-path="url(#SVGID_8_)" fill="#F7C215" width="0" height="3.2"/>
	
		<rect x="49" y="44.1" transform="matrix(0.7088 -0.7054 0.7054 0.7088 -17.9551 47.9114)" clip-path="url(#SVGID_8_)" fill="#F7C215" width="0" height="3.2"/>
	<polygon clip-path="url(#SVGID_8_)" fill="#F7C215" points="50.1,46.9 50.1,46.9 50.1,46.9 48,44.6 48,44.5 	"/>
	<polygon clip-path="url(#SVGID_8_)" fill="#F7C215" points="48,44.6 48,44.6 50.1,46.9 50.1,46.9 	"/>
	<polygon clip-path="url(#SVGID_8_)" fill="#F7C215" points="50.1,46.9 48,44.6 48,44.6 50.1,46.9 	"/>
	<polygon clip-path="url(#SVGID_8_)" fill="#F7C215" points="50.1,46.9 48,44.6 48,44.6 50.1,46.9 	"/>
	<polygon clip-path="url(#SVGID_8_)" fill="#F7C215" points="50,46.9 47.9,44.6 48,44.6 50.1,46.9 	"/>
	<polygon clip-path="url(#SVGID_8_)" fill="#F7C215" points="50,46.9 47.9,44.6 47.9,44.6 50,46.9 	"/>
	<polygon clip-path="url(#SVGID_8_)" fill="#F7C215" points="50,46.9 47.9,44.6 47.9,44.6 47.9,44.6 50,46.9 	"/>
	<polygon clip-path="url(#SVGID_8_)" fill="#F7C215" points="47.9,44.6 50,46.9 50,46.9 47.9,44.6 	"/>
	<polygon clip-path="url(#SVGID_8_)" fill="#F7C215" points="50,46.9 47.9,44.6 47.9,44.6 50,46.9 	"/>
	<polygon clip-path="url(#SVGID_8_)" fill="#F7C215" points="50,46.9 47.9,44.7 47.9,44.6 50,46.9 	"/>
	<polygon clip-path="url(#SVGID_8_)" fill="#F7C215" points="49.9,46.9 47.9,44.7 47.9,44.7 50,46.9 	"/>
	<polygon clip-path="url(#SVGID_8_)" fill="#F7C215" points="47.9,44.7 49.9,46.9 49.9,46.9 47.9,44.7 	"/>
	<polygon clip-path="url(#SVGID_8_)" fill="#F7C215" points="49.9,46.9 47.9,44.7 47.9,44.7 49.9,46.9 	"/>
	<polygon clip-path="url(#SVGID_8_)" fill="#F7C215" points="49.9,46.9 47.9,44.7 47.9,44.7 49.9,46.9 	"/>
	<polygon clip-path="url(#SVGID_8_)" fill="#F7C215" points="49.9,46.9 47.9,44.8 47.9,44.7 49.9,46.9 	"/>
	<polygon clip-path="url(#SVGID_8_)" fill="#F7C215" points="49.8,46.9 47.9,44.8 47.9,44.8 49.9,46.9 	"/>
	<polygon clip-path="url(#SVGID_8_)" fill="#F7C215" points="49.8,46.9 47.9,44.8 47.9,44.8 49.8,46.9 	"/>
	<polygon clip-path="url(#SVGID_8_)" fill="#F7C215" points="49.8,46.9 47.9,44.8 47.9,44.8 49.8,46.9 	"/>
	<polygon clip-path="url(#SVGID_8_)" fill="#F7C215" points="47.9,44.8 49.8,46.9 49.8,46.9 47.9,44.8 	"/>
	<polygon clip-path="url(#SVGID_8_)" fill="#F7C215" points="49.8,46.9 47.9,44.9 47.9,44.8 49.8,46.9 	"/>
	<polygon clip-path="url(#SVGID_8_)" fill="#F7C215" points="47.9,44.9 49.8,46.9 49.8,46.9 47.9,44.9 	"/>
	<polygon clip-path="url(#SVGID_8_)" fill="#F7C215" points="49.7,46.9 47.9,44.9 47.9,44.9 49.8,46.9 	"/>
	<polygon clip-path="url(#SVGID_8_)" fill="#F7C215" points="49.7,46.9 47.9,44.9 47.9,44.9 49.7,46.9 	"/>
	<polygon clip-path="url(#SVGID_8_)" fill="#F7C215" points="49.7,46.9 47.9,44.9 47.9,44.9 49.7,46.9 	"/>
	<polygon clip-path="url(#SVGID_8_)" fill="#F7C215" points="47.9,44.9 49.7,46.9 49.7,46.9 47.9,44.9 	"/>
	<polygon clip-path="url(#SVGID_8_)" fill="#F7C215" points="49.7,46.9 47.9,45 47.9,44.9 49.7,46.9 	"/>
	<polygon clip-path="url(#SVGID_8_)" fill="#F7C215" points="49.7,46.9 47.9,45 47.9,45 49.7,46.9 	"/>
	<polygon clip-path="url(#SVGID_8_)" fill="#F7C215" points="47.9,45 49.6,46.9 49.7,46.9 47.9,45 	"/>
	<polygon clip-path="url(#SVGID_8_)" fill="#F7C215" points="49.6,46.9 47.9,45 47.9,45 49.6,46.9 	"/>
	<polygon clip-path="url(#SVGID_8_)" fill="#F7C215" points="49.6,46.9 47.9,45 47.9,45 49.6,46.9 	"/>
	<polygon clip-path="url(#SVGID_8_)" fill="#F7C215" points="47.9,45.1 49.6,46.9 49.6,46.9 47.9,45 	"/>
	<polygon clip-path="url(#SVGID_8_)" fill="#F7C215" points="49.6,46.9 47.9,45.1 47.9,45.1 49.6,46.9 	"/>
	<polygon clip-path="url(#SVGID_8_)" fill="#F7C215" points="49.6,46.9 47.9,45.1 47.9,45.1 49.6,46.9 	"/>
	<polygon clip-path="url(#SVGID_8_)" fill="#F7C215" points="47.9,45.1 49.5,46.9 49.6,46.9 47.9,45.1 	"/>
	<polygon clip-path="url(#SVGID_8_)" fill="#F7C215" points="49.5,46.9 47.9,45.1 47.9,45.1 49.5,46.9 	"/>
	<polygon clip-path="url(#SVGID_8_)" fill="#F7C215" points="49.5,46.9 47.9,45.1 47.9,45.1 49.5,46.9 	"/>
	<polygon clip-path="url(#SVGID_8_)" fill="#F7C215" points="49.5,46.9 47.9,45.2 47.9,45.1 49.5,46.9 	"/>
	<polygon clip-path="url(#SVGID_8_)" fill="#F7C215" points="49.5,46.9 47.9,45.2 47.9,45.2 49.5,46.9 	"/>
	<polygon clip-path="url(#SVGID_8_)" fill="#F7C215" points="49.5,46.9 47.9,45.2 47.9,45.2 49.5,46.9 	"/>
	<polygon clip-path="url(#SVGID_8_)" fill="#F7C215" points="49.4,46.9 47.9,45.2 47.9,45.2 49.5,46.9 	"/>
	<polygon clip-path="url(#SVGID_8_)" fill="#F7C215" points="47.9,45.2 49.4,46.9 49.4,46.9 47.9,45.2 	"/>
	<polygon clip-path="url(#SVGID_8_)" fill="#F7C215" points="49.4,46.9 47.9,45.3 47.9,45.2 49.4,46.9 	"/>
	<polygon clip-path="url(#SVGID_8_)" fill="#F7C215" points="49.4,46.9 47.9,45.3 47.9,45.3 49.4,46.9 	"/>
	<polygon clip-path="url(#SVGID_8_)" fill="#F7C215" points="47.9,45.3 49.4,46.9 49.4,46.9 47.9,45.3 	"/>
	<polygon clip-path="url(#SVGID_8_)" fill="#F7C215" points="49.4,46.9 47.9,45.3 47.9,45.3 49.4,46.9 	"/>
	<polygon clip-path="url(#SVGID_8_)" fill="#F7C215" points="47.9,45.3 49.4,46.9 47.9,46.9 	"/>
</g>
<g>
	<defs>
		<polygon id="SVGID_9_" points="17.6,15.2 18.2,14.6 19.2,15.3 18.5,16 		"/>
	</defs>
	<use xlink:href="#SVGID_9_"  overflow="visible" fill="#F7C215"/>
	<clipPath id="SVGID_10_">
		<use xlink:href="#SVGID_9_"  overflow="visible"/>
	</clipPath>
	<polygon clip-path="url(#SVGID_10_)" fill="#F7C215" points="19.2,15.4 18.4,14.6 19.2,14.6 	"/>
	<polygon clip-path="url(#SVGID_10_)" fill="#F7C215" points="19.2,15.4 18.4,14.6 18.4,14.6 19.2,15.4 	"/>
	<polygon clip-path="url(#SVGID_10_)" fill="#F7C215" points="19.2,15.4 18.4,14.6 18.4,14.6 19.2,15.4 	"/>
	<polygon clip-path="url(#SVGID_10_)" fill="#F7C215" points="19.2,15.5 18.4,14.6 18.4,14.6 19.2,15.4 	"/>
	<polygon clip-path="url(#SVGID_10_)" fill="#F7C215" points="19.2,15.5 18.4,14.6 18.4,14.6 19.2,15.5 	"/>
	<polygon clip-path="url(#SVGID_10_)" fill="#F7C215" points="19.2,15.5 18.4,14.6 18.4,14.6 19.2,15.5 	"/>
	<polygon clip-path="url(#SVGID_10_)" fill="#F7C215" points="19.2,15.5 18.3,14.6 18.4,14.6 19.2,15.5 	"/>
	<polygon clip-path="url(#SVGID_10_)" fill="#F7C215" points="19.2,15.5 18.3,14.6 18.3,14.6 19.2,15.5 	"/>
	<polygon clip-path="url(#SVGID_10_)" fill="#F7C215" points="19.2,15.5 18.3,14.6 18.3,14.6 19.2,15.5 	"/>
	<polygon clip-path="url(#SVGID_10_)" fill="#F7C215" points="19.2,15.6 18.3,14.6 18.3,14.6 19.2,15.5 	"/>
	<polygon clip-path="url(#SVGID_10_)" fill="#F7C215" points="19.2,15.6 18.3,14.6 18.3,14.6 19.2,15.6 	"/>
	<polygon clip-path="url(#SVGID_10_)" fill="#F7C215" points="19.2,15.6 18.3,14.6 18.3,14.6 19.2,15.6 	"/>
	<polygon clip-path="url(#SVGID_10_)" fill="#F7C215" points="19.2,15.6 18.3,14.6 18.3,14.6 19.2,15.6 	"/>
	<polygon clip-path="url(#SVGID_10_)" fill="#F7C215" points="19.2,15.6 18.2,14.6 18.3,14.6 19.2,15.6 	"/>
	<polygon clip-path="url(#SVGID_10_)" fill="#F7C215" points="19.2,15.6 18.2,14.6 18.2,14.6 19.2,15.6 	"/>
	<polygon clip-path="url(#SVGID_10_)" fill="#F7C215" points="19.2,15.6 18.2,14.6 18.2,14.6 19.2,15.6 	"/>
	<polygon clip-path="url(#SVGID_10_)" fill="#F7C215" points="19.2,15.7 18.2,14.6 18.2,14.6 19.2,15.6 	"/>
	<polygon clip-path="url(#SVGID_10_)" fill="#F7C215" points="19.2,15.7 18.2,14.6 18.2,14.6 19.2,15.7 	"/>
	<polygon clip-path="url(#SVGID_10_)" fill="#F7C215" points="19.2,15.7 18.2,14.6 18.2,14.6 19.2,15.7 	"/>
	<polygon clip-path="url(#SVGID_10_)" fill="#F7C215" points="19.2,15.7 18.2,14.6 18.2,14.6 19.2,15.7 	"/>
	<polygon clip-path="url(#SVGID_10_)" fill="#F7C215" points="19.2,15.7 18.1,14.6 18.2,14.6 19.2,15.7 	"/>
	<polygon clip-path="url(#SVGID_10_)" fill="#F7C215" points="19.2,15.7 18.1,14.6 18.1,14.6 19.2,15.7 	"/>
	<polygon clip-path="url(#SVGID_10_)" fill="#F7C215" points="19.2,15.8 18.1,14.6 18.1,14.6 19.2,15.7 	"/>
	<polygon clip-path="url(#SVGID_10_)" fill="#F7C215" points="19.2,15.8 18.1,14.6 18.1,14.6 19.2,15.8 	"/>
	<polygon clip-path="url(#SVGID_10_)" fill="#F7C215" points="19.2,15.8 18.1,14.6 18.1,14.6 19.2,15.8 	"/>
	<polygon clip-path="url(#SVGID_10_)" fill="#F7C215" points="19.2,15.8 18.1,14.6 18.1,14.6 19.2,15.8 	"/>
	<polygon clip-path="url(#SVGID_10_)" fill="#F7C215" points="19.2,15.8 18.1,14.6 18.1,14.6 19.2,15.8 	"/>
	<polygon clip-path="url(#SVGID_10_)" fill="#F7C215" points="19.2,15.8 18,14.6 18.1,14.6 19.2,15.8 	"/>
	<polygon clip-path="url(#SVGID_10_)" fill="#F7C215" points="19.2,15.9 18,14.6 18,14.6 19.2,15.8 	"/>
	<polygon clip-path="url(#SVGID_10_)" fill="#F7C215" points="19.2,15.9 18,14.6 18,14.6 19.2,15.9 	"/>
	<polygon clip-path="url(#SVGID_10_)" fill="#F7C215" points="19.2,15.9 18,14.6 18,14.6 19.2,15.9 	"/>
	<polygon clip-path="url(#SVGID_10_)" fill="#F7C215" points="19.2,15.9 18,14.6 18,14.6 19.2,15.9 	"/>
	<polygon clip-path="url(#SVGID_10_)" fill="#F7C215" points="19.2,15.9 18,14.6 18,14.6 19.2,15.9 	"/>
	<polygon clip-path="url(#SVGID_10_)" fill="#F7C215" points="19.2,15.9 18,14.6 18,14.6 19.2,15.9 	"/>
	<polygon clip-path="url(#SVGID_10_)" fill="#F7C215" points="19.2,15.9 17.9,14.6 18,14.6 19.2,15.9 	"/>
	<polygon clip-path="url(#SVGID_10_)" fill="#F7C215" points="19.2,16 17.9,14.6 17.9,14.6 19.2,15.9 	"/>
	<polygon clip-path="url(#SVGID_10_)" fill="#F7C215" points="19.2,16 17.9,14.6 17.9,14.6 19.2,16 	"/>
	<polygon clip-path="url(#SVGID_10_)" fill="#F7C215" points="19.2,16 17.9,14.6 17.9,14.6 19.2,16 	"/>
	<polygon clip-path="url(#SVGID_10_)" fill="#F7C215" points="19.2,16 17.9,14.6 17.9,14.6 19.2,16 	"/>
	<polygon clip-path="url(#SVGID_10_)" fill="#F7C215" points="19.2,16 19.2,16 17.9,14.6 17.9,14.6 19.2,16 	"/>
	<polygon clip-path="url(#SVGID_10_)" fill="#F7C215" points="19.2,16 19.2,16 17.9,14.6 17.9,14.6 	"/>
	<polygon clip-path="url(#SVGID_10_)" fill="#F7C215" points="19.2,16 19.2,16 19.2,16 17.8,14.6 17.9,14.6 	"/>
	<polygon clip-path="url(#SVGID_10_)" fill="#F7C215" points="19.2,16 17.8,14.6 17.8,14.6 19.2,16 	"/>
	<polygon clip-path="url(#SVGID_10_)" fill="#F7C215" points="19.2,16 17.8,14.6 17.8,14.6 19.2,16 	"/>
	<polygon clip-path="url(#SVGID_10_)" fill="#F7C215" points="19.1,16 17.8,14.6 17.8,14.6 19.2,16 	"/>
	<polygon clip-path="url(#SVGID_10_)" fill="#F7C215" points="19.1,16 17.8,14.6 17.8,14.6 19.1,16 	"/>
	<polygon clip-path="url(#SVGID_10_)" fill="#F7C215" points="19.1,16 17.8,14.6 17.8,14.6 19.1,16 	"/>
	<polygon clip-path="url(#SVGID_10_)" fill="#F7C215" points="19.1,16 17.8,14.6 17.8,14.6 19.1,16 	"/>
	<polygon clip-path="url(#SVGID_10_)" fill="#F7C215" points="19.1,16 17.7,14.6 17.8,14.6 19.1,16 	"/>
	<polygon clip-path="url(#SVGID_10_)" fill="#F7C215" points="19.1,16 17.7,14.6 17.7,14.6 19.1,16 	"/>
	<polygon clip-path="url(#SVGID_10_)" fill="#F7C215" points="19.1,16 17.7,14.6 17.7,14.6 19.1,16 	"/>
	<polygon clip-path="url(#SVGID_10_)" fill="#F7C215" points="19,16 17.7,14.6 17.7,14.6 19.1,16 	"/>
	<polygon clip-path="url(#SVGID_10_)" fill="#F7C215" points="19,16 17.7,14.6 17.7,14.6 19,16 	"/>
	<polygon clip-path="url(#SVGID_10_)" fill="#F7C215" points="19,16 17.7,14.6 17.7,14.6 19,16 	"/>
	<polygon clip-path="url(#SVGID_10_)" fill="#F7C215" points="19,16 17.7,14.6 17.7,14.6 19,16 	"/>
	<polygon clip-path="url(#SVGID_10_)" fill="#F7C215" points="19,16 17.6,14.6 17.7,14.6 19,16 	"/>
	<polygon clip-path="url(#SVGID_10_)" fill="#F7C215" points="19,16 17.6,14.6 17.6,14.6 19,16 	"/>
	<polygon clip-path="url(#SVGID_10_)" fill="#F7C215" points="19,16 17.6,14.6 17.6,14.6 19,16 	"/>
	<polygon clip-path="url(#SVGID_10_)" fill="#F7C215" points="18.9,16 17.6,14.6 17.6,14.6 19,16 	"/>
	<polygon clip-path="url(#SVGID_10_)" fill="#F7C215" points="18.9,16 17.6,14.6 17.6,14.6 17.6,14.6 18.9,16 	"/>
	<polygon clip-path="url(#SVGID_10_)" fill="#F7C215" points="18.9,16 17.6,14.6 17.6,14.6 18.9,16 	"/>
	<polygon clip-path="url(#SVGID_10_)" fill="#F7C215" points="18.9,16 17.6,14.6 17.6,14.6 18.9,16 	"/>
	<polygon clip-path="url(#SVGID_10_)" fill="#F7C215" points="18.9,16 17.6,14.6 17.6,14.6 18.9,16 	"/>
	<polygon clip-path="url(#SVGID_10_)" fill="#F7C215" points="18.9,16 17.6,14.6 17.6,14.6 18.9,16 	"/>
	<polygon clip-path="url(#SVGID_10_)" fill="#F7C215" points="18.9,16 17.6,14.6 17.6,14.6 18.9,16 	"/>
	<polygon clip-path="url(#SVGID_10_)" fill="#F7C215" points="18.8,16 17.6,14.7 17.6,14.6 18.9,16 	"/>
	<polygon clip-path="url(#SVGID_10_)" fill="#F7C215" points="18.8,16 17.6,14.7 17.6,14.7 18.8,16 	"/>
	<polygon clip-path="url(#SVGID_10_)" fill="#F7C215" points="18.8,16 17.6,14.7 17.6,14.7 18.8,16 	"/>
	<polygon clip-path="url(#SVGID_10_)" fill="#F7C215" points="18.8,16 17.6,14.7 17.6,14.7 18.8,16 	"/>
	<polygon clip-path="url(#SVGID_10_)" fill="#F7C215" points="18.8,16 17.6,14.7 17.6,14.7 18.8,16 	"/>
	<polygon clip-path="url(#SVGID_10_)" fill="#F7C215" points="18.8,16 17.6,14.7 17.6,14.7 18.8,16 	"/>
	<polygon clip-path="url(#SVGID_10_)" fill="#F7C215" points="18.8,16 17.6,14.8 17.6,14.7 18.8,16 	"/>
	<polygon clip-path="url(#SVGID_10_)" fill="#F7C215" points="18.7,16 17.6,14.8 17.6,14.8 18.8,16 	"/>
	<polygon clip-path="url(#SVGID_10_)" fill="#F7C215" points="18.7,16 17.6,14.8 17.6,14.8 18.7,16 	"/>
	<polygon clip-path="url(#SVGID_10_)" fill="#F7C215" points="18.7,16 17.6,14.8 17.6,14.8 18.7,16 	"/>
	<polygon clip-path="url(#SVGID_10_)" fill="#F7C215" points="18.7,16 17.6,14.8 17.6,14.8 18.7,16 	"/>
	<polygon clip-path="url(#SVGID_10_)" fill="#F7C215" points="18.7,16 17.6,14.8 17.6,14.8 18.7,16 	"/>
	<polygon clip-path="url(#SVGID_10_)" fill="#F7C215" points="18.7,16 17.6,14.9 17.6,14.8 18.7,16 	"/>
	<polygon clip-path="url(#SVGID_10_)" fill="#F7C215" points="18.7,16 17.6,14.9 17.6,14.9 18.7,16 	"/>
	<polygon clip-path="url(#SVGID_10_)" fill="#F7C215" points="18.6,16 17.6,14.9 17.6,14.9 18.7,16 	"/>
	<polygon clip-path="url(#SVGID_10_)" fill="#F7C215" points="18.6,16 17.6,14.9 17.6,14.9 18.6,16 	"/>
	<polygon clip-path="url(#SVGID_10_)" fill="#F7C215" points="18.6,16 17.6,14.9 17.6,14.9 18.6,16 	"/>
	<polygon clip-path="url(#SVGID_10_)" fill="#F7C215" points="17.6,14.9 18.6,16 18.6,16 17.6,14.9 	"/>
	<polygon clip-path="url(#SVGID_10_)" fill="#F7C215" points="17.6,14.9 18.6,16 18.6,16 17.6,14.9 	"/>
	<polygon clip-path="url(#SVGID_10_)" fill="#F7C215" points="17.6,15 18.6,16 18.6,16 17.6,14.9 	"/>
	<polygon clip-path="url(#SVGID_10_)" fill="#F7C215" points="18.6,16 17.6,15 17.6,15 18.6,16 	"/>
	<polygon clip-path="url(#SVGID_10_)" fill="#F7C215" points="18.5,16 17.6,15 17.6,15 18.6,16 	"/>
	<polygon clip-path="url(#SVGID_10_)" fill="#F7C215" points="18.5,16 17.6,15 17.6,15 18.5,16 	"/>
	<polygon clip-path="url(#SVGID_10_)" fill="#F7C215" points="18.5,16 17.6,15 17.6,15 18.5,16 	"/>
	<polygon clip-path="url(#SVGID_10_)" fill="#F7C215" points="18.5,16 17.6,15 17.6,15 18.5,16 	"/>
	<polygon clip-path="url(#SVGID_10_)" fill="#F7C215" points="18.5,16 17.6,15.1 17.6,15 18.5,16 	"/>
	<polygon clip-path="url(#SVGID_10_)" fill="#F7C215" points="18.5,16 17.6,15.1 17.6,15.1 18.5,16 	"/>
	<polygon clip-path="url(#SVGID_10_)" fill="#F7C215" points="18.5,16 17.6,15.1 17.6,15.1 18.5,16 	"/>
	<polygon clip-path="url(#SVGID_10_)" fill="#F7C215" points="17.6,15.1 18.5,16 17.6,16 	"/>
</g>
<g>
	<defs>
		<polygon id="SVGID_11_" points="45.9,43.4 46.5,42.8 47.5,43.5 46.8,44.3 		"/>
	</defs>
	<use xlink:href="#SVGID_11_"  overflow="visible" fill="#F7C215"/>
	<clipPath id="SVGID_12_">
		<use xlink:href="#SVGID_11_"  overflow="visible"/>
	</clipPath>
	<polygon clip-path="url(#SVGID_12_)" fill="#F7C215" points="47.5,43.6 46.7,42.8 47.5,42.8 	"/>
	<polygon clip-path="url(#SVGID_12_)" fill="#F7C215" points="47.5,43.6 46.7,42.8 46.7,42.8 47.5,43.6 	"/>
	<polygon clip-path="url(#SVGID_12_)" fill="#F7C215" points="47.5,43.6 46.7,42.8 46.7,42.8 47.5,43.6 	"/>
	<polygon clip-path="url(#SVGID_12_)" fill="#F7C215" points="47.5,43.7 46.7,42.8 46.7,42.8 47.5,43.6 	"/>
	<polygon clip-path="url(#SVGID_12_)" fill="#F7C215" points="47.5,43.7 46.6,42.8 46.7,42.8 47.5,43.7 	"/>
	<polygon clip-path="url(#SVGID_12_)" fill="#F7C215" points="47.5,43.7 46.6,42.8 46.6,42.8 47.5,43.7 	"/>
	<polygon clip-path="url(#SVGID_12_)" fill="#F7C215" points="47.5,43.7 46.6,42.8 46.6,42.8 47.5,43.7 	"/>
	<polygon clip-path="url(#SVGID_12_)" fill="#F7C215" points="47.5,43.7 46.6,42.8 46.6,42.8 47.5,43.7 	"/>
	<polygon clip-path="url(#SVGID_12_)" fill="#F7C215" points="47.5,43.7 46.6,42.8 46.6,42.8 47.5,43.7 	"/>
	<polygon clip-path="url(#SVGID_12_)" fill="#F7C215" points="47.5,43.8 46.6,42.8 46.6,42.8 47.5,43.7 	"/>
	<polygon clip-path="url(#SVGID_12_)" fill="#F7C215" points="47.5,43.8 46.6,42.8 46.6,42.8 47.5,43.8 	"/>
	<polygon clip-path="url(#SVGID_12_)" fill="#F7C215" points="47.5,43.8 46.5,42.8 46.6,42.8 47.5,43.8 	"/>
	<polygon clip-path="url(#SVGID_12_)" fill="#F7C215" points="47.5,43.8 46.5,42.8 46.5,42.8 47.5,43.8 	"/>
	<polygon clip-path="url(#SVGID_12_)" fill="#F7C215" points="47.5,43.8 46.5,42.8 46.5,42.8 47.5,43.8 	"/>
	<polygon clip-path="url(#SVGID_12_)" fill="#F7C215" points="47.5,43.8 46.5,42.8 46.5,42.8 47.5,43.8 	"/>
	<polygon clip-path="url(#SVGID_12_)" fill="#F7C215" points="47.5,43.9 46.5,42.8 46.5,42.8 47.5,43.8 	"/>
	<polygon clip-path="url(#SVGID_12_)" fill="#F7C215" points="47.5,43.9 46.5,42.8 46.5,42.8 47.5,43.9 	"/>
	<polygon clip-path="url(#SVGID_12_)" fill="#F7C215" points="47.5,43.9 46.5,42.8 46.5,42.8 47.5,43.9 	"/>
	<polygon clip-path="url(#SVGID_12_)" fill="#F7C215" points="47.5,43.9 46.4,42.8 46.5,42.8 47.5,43.9 	"/>
	<polygon clip-path="url(#SVGID_12_)" fill="#F7C215" points="47.5,43.9 46.4,42.8 46.4,42.8 47.5,43.9 	"/>
	<polygon clip-path="url(#SVGID_12_)" fill="#F7C215" points="47.5,43.9 46.4,42.8 46.4,42.8 47.5,43.9 	"/>
	<polygon clip-path="url(#SVGID_12_)" fill="#F7C215" points="47.5,43.9 46.4,42.8 46.4,42.8 47.5,43.9 	"/>
	<polygon clip-path="url(#SVGID_12_)" fill="#F7C215" points="47.5,44 46.4,42.8 46.4,42.8 47.5,43.9 	"/>
	<polygon clip-path="url(#SVGID_12_)" fill="#F7C215" points="47.5,44 46.4,42.8 46.4,42.8 47.5,44 	"/>
	<polygon clip-path="url(#SVGID_12_)" fill="#F7C215" points="47.5,44 46.4,42.8 46.4,42.8 47.5,44 	"/>
	<polygon clip-path="url(#SVGID_12_)" fill="#F7C215" points="47.5,44 46.3,42.8 46.4,42.8 47.5,44 	"/>
	<polygon clip-path="url(#SVGID_12_)" fill="#F7C215" points="47.5,44 46.3,42.8 46.3,42.8 47.5,44 	"/>
	<polygon clip-path="url(#SVGID_12_)" fill="#F7C215" points="47.5,44 46.3,42.8 46.3,42.8 47.5,44 	"/>
	<polygon clip-path="url(#SVGID_12_)" fill="#F7C215" points="47.5,44.1 46.3,42.8 46.3,42.8 47.5,44 	"/>
	<polygon clip-path="url(#SVGID_12_)" fill="#F7C215" points="47.5,44.1 46.3,42.8 46.3,42.8 47.5,44.1 	"/>
	<polygon clip-path="url(#SVGID_12_)" fill="#F7C215" points="47.5,44.1 46.3,42.8 46.3,42.8 47.5,44.1 	"/>
	<polygon clip-path="url(#SVGID_12_)" fill="#F7C215" points="46.3,42.8 47.5,44.1 47.5,44.1 46.3,42.8 	"/>
	<polygon clip-path="url(#SVGID_12_)" fill="#F7C215" points="47.5,44.1 46.2,42.8 46.3,42.8 47.5,44.1 	"/>
	<polygon clip-path="url(#SVGID_12_)" fill="#F7C215" points="47.5,44.1 46.2,42.8 46.2,42.8 47.5,44.1 	"/>
	<polygon clip-path="url(#SVGID_12_)" fill="#F7C215" points="47.5,44.1 46.2,42.8 46.2,42.8 47.5,44.1 	"/>
	<polygon clip-path="url(#SVGID_12_)" fill="#F7C215" points="47.5,44.2 46.2,42.8 46.2,42.8 47.5,44.1 	"/>
	<polygon clip-path="url(#SVGID_12_)" fill="#F7C215" points="47.5,44.2 46.2,42.8 46.2,42.8 47.5,44.2 	"/>
	<polygon clip-path="url(#SVGID_12_)" fill="#F7C215" points="47.5,44.2 46.2,42.8 46.2,42.8 47.5,44.2 	"/>
	<polygon clip-path="url(#SVGID_12_)" fill="#F7C215" points="47.5,44.2 46.2,42.8 46.2,42.8 47.5,44.2 	"/>
	<polygon clip-path="url(#SVGID_12_)" fill="#F7C215" points="47.5,44.2 46.1,42.8 46.2,42.8 47.5,44.2 	"/>
	<polygon clip-path="url(#SVGID_12_)" fill="#F7C215" points="47.5,44.2 46.1,42.8 46.1,42.8 47.5,44.2 	"/>
	<polygon clip-path="url(#SVGID_12_)" fill="#F7C215" points="47.5,44.3 46.1,42.8 46.1,42.8 47.5,44.2 	"/>
	<polygon clip-path="url(#SVGID_12_)" fill="#F7C215" points="47.5,44.3 46.1,42.8 46.1,42.8 47.5,44.3 	"/>
	<polygon clip-path="url(#SVGID_12_)" fill="#F7C215" points="47.5,44.3 46.1,42.8 46.1,42.8 47.5,44.3 47.5,44.3 	"/>
	<polygon clip-path="url(#SVGID_12_)" fill="#F7C215" points="47.5,44.3 46.1,42.8 46.1,42.8 47.5,44.3 	"/>
	<polygon clip-path="url(#SVGID_12_)" fill="#F7C215" points="47.4,44.3 46.1,42.8 46.1,42.8 47.5,44.3 	"/>
	<polygon clip-path="url(#SVGID_12_)" fill="#F7C215" points="47.4,44.3 46,42.8 46.1,42.8 47.4,44.3 	"/>
	<polygon clip-path="url(#SVGID_12_)" fill="#F7C215" points="47.4,44.3 46,42.8 46,42.8 47.4,44.3 	"/>
	<polygon clip-path="url(#SVGID_12_)" fill="#F7C215" points="47.4,44.3 46,42.8 46,42.8 47.4,44.3 	"/>
	<polygon clip-path="url(#SVGID_12_)" fill="#F7C215" points="47.4,44.3 46,42.8 46,42.8 47.4,44.3 	"/>
	<polygon clip-path="url(#SVGID_12_)" fill="#F7C215" points="47.4,44.3 46,42.8 46,42.8 47.4,44.3 	"/>
	<polygon clip-path="url(#SVGID_12_)" fill="#F7C215" points="47.4,44.3 46,42.8 46,42.8 47.4,44.3 	"/>
	<polygon clip-path="url(#SVGID_12_)" fill="#F7C215" points="47.3,44.3 46,42.8 46,42.8 47.4,44.3 	"/>
	<polygon clip-path="url(#SVGID_12_)" fill="#F7C215" points="45.9,42.8 47.3,44.3 47.3,44.3 46,42.8 	"/>
	<polygon clip-path="url(#SVGID_12_)" fill="#F7C215" points="47.3,44.3 45.9,42.8 45.9,42.8 47.3,44.3 	"/>
	<polygon clip-path="url(#SVGID_12_)" fill="#F7C215" points="47.3,44.3 45.9,42.8 45.9,42.8 47.3,44.3 	"/>
	<polygon clip-path="url(#SVGID_12_)" fill="#F7C215" points="47.3,44.3 45.9,42.8 45.9,42.8 45.9,42.8 47.3,44.3 	"/>
	<polygon clip-path="url(#SVGID_12_)" fill="#F7C215" points="47.3,44.3 45.9,42.8 45.9,42.8 47.3,44.3 	"/>
	<polygon clip-path="url(#SVGID_12_)" fill="#F7C215" points="47.3,44.3 45.9,42.8 45.9,42.8 47.3,44.3 	"/>
	<polygon clip-path="url(#SVGID_12_)" fill="#F7C215" points="47.2,44.3 45.9,42.8 45.9,42.8 47.3,44.3 	"/>
	<polygon clip-path="url(#SVGID_12_)" fill="#F7C215" points="47.2,44.3 45.9,42.8 45.9,42.8 47.2,44.3 	"/>
	<polygon clip-path="url(#SVGID_12_)" fill="#F7C215" points="47.2,44.3 45.9,42.9 45.9,42.8 47.2,44.3 	"/>
	<polygon clip-path="url(#SVGID_12_)" fill="#F7C215" points="47.2,44.3 45.9,42.9 45.9,42.9 47.2,44.3 	"/>
	<polygon clip-path="url(#SVGID_12_)" fill="#F7C215" points="47.2,44.3 45.9,42.9 45.9,42.9 47.2,44.3 	"/>
	<polygon clip-path="url(#SVGID_12_)" fill="#F7C215" points="47.2,44.3 45.9,42.9 45.9,42.9 47.2,44.3 	"/>
	<polygon clip-path="url(#SVGID_12_)" fill="#F7C215" points="47.2,44.3 45.9,42.9 45.9,42.9 47.2,44.3 	"/>
	<polygon clip-path="url(#SVGID_12_)" fill="#F7C215" points="47.1,44.3 45.9,42.9 45.9,42.9 47.2,44.3 	"/>
	<polygon clip-path="url(#SVGID_12_)" fill="#F7C215" points="47.1,44.3 45.9,43 45.9,42.9 47.1,44.3 	"/>
	<polygon clip-path="url(#SVGID_12_)" fill="#F7C215" points="47.1,44.3 45.9,43 45.9,43 47.1,44.3 	"/>
	<polygon clip-path="url(#SVGID_12_)" fill="#F7C215" points="47.1,44.3 45.9,43 45.9,43 47.1,44.3 	"/>
	<polygon clip-path="url(#SVGID_12_)" fill="#F7C215" points="47.1,44.3 45.9,43 45.9,43 47.1,44.3 	"/>
	<polygon clip-path="url(#SVGID_12_)" fill="#F7C215" points="47.1,44.3 45.9,43 45.9,43 47.1,44.3 	"/>
	<polygon clip-path="url(#SVGID_12_)" fill="#F7C215" points="45.9,43 47.1,44.3 47.1,44.3 45.9,43 	"/>
	<polygon clip-path="url(#SVGID_12_)" fill="#F7C215" points="47,44.3 45.9,43 45.9,43 47.1,44.3 	"/>
	<polygon clip-path="url(#SVGID_12_)" fill="#F7C215" points="47,44.3 45.9,43.1 45.9,43 47,44.3 	"/>
	<polygon clip-path="url(#SVGID_12_)" fill="#F7C215" points="47,44.3 45.9,43.1 45.9,43.1 47,44.3 	"/>
	<polygon clip-path="url(#SVGID_12_)" fill="#F7C215" points="47,44.3 45.9,43.1 45.9,43.1 47,44.3 	"/>
	<polygon clip-path="url(#SVGID_12_)" fill="#F7C215" points="47,44.3 45.9,43.1 45.9,43.1 47,44.3 	"/>
	<polygon clip-path="url(#SVGID_12_)" fill="#F7C215" points="47,44.3 45.9,43.1 45.9,43.1 47,44.3 	"/>
	<polygon clip-path="url(#SVGID_12_)" fill="#F7C215" points="47,44.3 45.9,43.1 45.9,43.1 47,44.3 	"/>
	<polygon clip-path="url(#SVGID_12_)" fill="#F7C215" points="46.9,44.3 45.9,43.2 45.9,43.1 47,44.3 	"/>
	<polygon clip-path="url(#SVGID_12_)" fill="#F7C215" points="46.9,44.3 45.9,43.2 45.9,43.2 46.9,44.3 	"/>
	<polygon clip-path="url(#SVGID_12_)" fill="#F7C215" points="46.9,44.3 45.9,43.2 45.9,43.2 46.9,44.3 	"/>
	<polygon clip-path="url(#SVGID_12_)" fill="#F7C215" points="46.9,44.3 45.9,43.2 45.9,43.2 46.9,44.3 	"/>
	<polygon clip-path="url(#SVGID_12_)" fill="#F7C215" points="46.9,44.3 45.9,43.2 45.9,43.2 46.9,44.3 	"/>
	<polygon clip-path="url(#SVGID_12_)" fill="#F7C215" points="46.9,44.3 45.9,43.2 45.9,43.2 46.9,44.3 	"/>
	<polygon clip-path="url(#SVGID_12_)" fill="#F7C215" points="46.8,44.3 45.9,43.2 45.9,43.2 46.9,44.3 	"/>
	<polygon clip-path="url(#SVGID_12_)" fill="#F7C215" points="46.8,44.3 45.9,43.3 45.9,43.2 46.8,44.3 	"/>
	<polygon clip-path="url(#SVGID_12_)" fill="#F7C215" points="45.9,43.3 46.8,44.3 46.8,44.3 45.9,43.3 	"/>
	<polygon clip-path="url(#SVGID_12_)" fill="#F7C215" points="46.8,44.3 45.9,43.3 45.9,43.3 46.8,44.3 	"/>
	<polygon clip-path="url(#SVGID_12_)" fill="#F7C215" points="46.8,44.3 45.9,43.3 45.9,43.3 46.8,44.3 	"/>
	<polygon clip-path="url(#SVGID_12_)" fill="#F7C215" points="46.8,44.3 45.9,43.3 45.9,43.3 46.8,44.3 	"/>
	<polygon clip-path="url(#SVGID_12_)" fill="#F7C215" points="46.8,44.3 45.9,43.3 45.9,43.3 46.8,44.3 	"/>
	<polygon clip-path="url(#SVGID_12_)" fill="#F7C215" points="45.9,43.3 46.8,44.3 45.9,44.3 	"/>
</g>
<g>
	<path fill="#F7C215" d="M74.7,12.3v12h15.5V28H74.7v13.1H71V8.8h19.8v3.6H74.7z"/>
	<path fill="#F7C215" d="M95.1,11V7h3.6V11H95.1z M95.1,41.1V16.3h3.6v24.8H95.1z"/>
	<path fill="#F7C215" d="M106.6,29.6c0,1.3,0.1,2.5,0.4,3.6c0.3,1.1,0.7,2,1.2,2.8c0.5,0.8,1.1,1.4,1.8,1.8c0.7,0.4,1.6,0.7,2.7,0.7
		c1.5,0,2.8-0.4,3.7-1.1c0.9-0.7,1.6-1.6,1.9-2.7l3.1,1c-0.2,0.7-0.5,1.4-0.9,2.1c-0.4,0.7-0.9,1.3-1.6,1.9c-0.7,0.6-1.5,1-2.5,1.4
		c-1,0.4-2.2,0.5-3.6,0.5c-3.2,0-5.6-1.1-7.2-3.3c-1.7-2.2-2.5-5.4-2.5-9.7c0-2.3,0.3-4.3,0.8-5.9c0.5-1.6,1.2-2.9,2.1-3.9
		c0.9-1,1.9-1.7,3-2.2c1.2-0.5,2.4-0.7,3.7-0.7c1.8,0,3.3,0.3,4.5,1c2.3,1.3,3.8,3.6,4.5,7c0.3,1.6,0.5,3.3,0.5,5.2v0.6H106.6z
		 M118.5,26.4c0-2.8-0.5-4.7-1.6-5.8c-1.1-1.1-2.5-1.7-4.3-1.7c-1.3,0-2.5,0.5-3.7,1.5c-1.4,1.2-2.2,3.2-2.3,6H118.5z"/>
	<path fill="#F7C215" d="M142.6,34.2c0,1.2-0.2,2.2-0.6,3.1c-0.4,0.9-0.9,1.7-1.7,2.3c-0.7,0.6-1.6,1.1-2.7,1.4
		c-1.1,0.3-2.3,0.5-3.7,0.5c-1.2,0-2.4-0.1-3.3-0.3c-1-0.2-1.9-0.6-2.6-1.1c-0.7-0.5-1.4-1.1-1.9-1.9c-0.5-0.8-0.9-1.8-1.1-2.9
		l3.1-0.7c0.3,1.3,0.9,2.3,1.9,2.9c0.9,0.6,2.3,0.9,3.9,0.9c0.8,0,1.5-0.1,2.1-0.2c0.6-0.1,1.2-0.3,1.6-0.6c0.5-0.3,0.8-0.7,1.1-1.2
		c0.3-0.5,0.4-1.1,0.4-1.8c0-0.7-0.2-1.4-0.5-1.8c-0.3-0.5-0.7-0.9-1.3-1.2c-0.5-0.3-1.2-0.6-2-0.8l-2.6-0.8
		c-0.9-0.3-1.7-0.6-2.5-0.9c-0.8-0.3-1.6-0.7-2.3-1.3c-0.7-0.5-1.2-1.2-1.6-2c-0.4-0.8-0.6-1.8-0.6-2.9c0-2.3,0.7-4,2.1-5.2
		c1.4-1.2,3.4-1.8,6.1-1.8c2.4,0,4.2,0.5,5.6,1.4c1.4,1,2.3,2.5,2.6,4.6l-3.2,0.5c-0.1-0.6-0.3-1.2-0.7-1.6
		c-0.3-0.4-0.7-0.8-1.2-1.1c-0.4-0.3-1-0.5-1.5-0.6c-0.6-0.1-1.1-0.2-1.7-0.2c-1.6,0-2.8,0.3-3.6,0.9c-0.8,0.6-1.1,1.4-1.1,2.6
		c0,0.7,0.1,1.2,0.4,1.7c0.3,0.4,0.7,0.8,1.2,1.1c0.5,0.3,1.1,0.6,1.8,0.8l2.4,0.7l1.7,0.5c0.6,0.2,1.2,0.4,1.7,0.7
		c0.6,0.3,1.1,0.6,1.6,0.9c0.5,0.4,0.9,0.8,1.3,1.3c0.4,0.5,0.7,1.1,0.9,1.8C142.5,32.6,142.6,33.3,142.6,34.2z"/>
	<path fill="#F7C215" d="M155,40.9c-0.5,0.2-1.1,0.3-1.7,0.4c-0.6,0.1-1.2,0.1-2,0.1c-2.8,0-4.3-1.9-4.3-5.6V19.3h-2.5v-3h2.6l1-5.6
		h2.4v5.6h3.9v3h-3.9v15.7c0,1.2,0.2,2,0.5,2.5c0.3,0.5,0.9,0.7,1.7,0.7c0.3,0,0.7,0,1-0.1c0.3-0.1,0.7-0.1,1.1-0.2V40.9z"/>
	<path fill="#F7C215" d="M163.5,41.5c-2.2,0-3.8-0.7-4.8-2c-1.1-1.3-1.6-3.1-1.6-5.4c0-1.6,0.3-3,0.8-4c0.5-1,1.2-1.9,2.1-2.5
		c0.9-0.6,1.8-1,3-1.2c1.1-0.2,2.2-0.4,3.4-0.4l4.8-0.1v-1.4c0-1-0.1-1.9-0.3-2.6c-0.2-0.7-0.5-1.3-0.9-1.7c-0.4-0.4-0.9-0.8-1.4-1
		c-0.6-0.2-1.2-0.3-2-0.3c-0.7,0-1.3,0.1-1.9,0.2c-0.5,0.1-1,0.3-1.4,0.6c-0.4,0.3-0.7,0.7-1,1.2c-0.2,0.5-0.4,1.2-0.5,1.9l-3.7-0.4
		c0.1-1,0.4-1.9,0.7-2.7c0.4-0.8,0.9-1.5,1.6-2.1c0.7-0.6,1.5-1.1,2.5-1.4c1-0.3,2.3-0.5,3.7-0.5c2.7,0,4.7,0.7,6.1,2.1
		c1.4,1.4,2,3.5,2,6.2v10.7c0,1.2,0.1,2.1,0.4,2.8c0.3,0.6,0.8,0.9,1.6,0.9c0.2,0,0.4,0,0.6,0c0.2,0,0.4-0.1,0.6-0.1V41
		c-0.4,0.1-0.9,0.2-1.3,0.3c-0.4,0.1-0.9,0.1-1.4,0.1c-0.7,0-1.3-0.1-1.7-0.3c-0.5-0.2-0.9-0.5-1.2-0.9c-0.3-0.4-0.5-0.9-0.7-1.6
		c-0.2-0.6-0.3-1.3-0.3-2.2h-0.1c-0.4,0.8-0.8,1.5-1.3,2.2c-0.5,0.6-1,1.2-1.6,1.6c-0.6,0.5-1.3,0.8-2.1,1
		C165.4,41.4,164.5,41.5,163.5,41.5z M164.3,38.5c1.1,0,2.1-0.2,3-0.7c0.8-0.5,1.5-1.1,2.1-1.8c0.6-0.7,1-1.6,1.3-2.5
		c0.3-0.9,0.4-1.7,0.4-2.5v-2l-3.9,0.1c-0.9,0-1.7,0.1-2.5,0.2c-0.8,0.1-1.5,0.4-2.1,0.8c-0.6,0.4-1.1,0.9-1.4,1.6
		c-0.4,0.7-0.5,1.6-0.5,2.7c0,1.3,0.3,2.4,0.9,3.1C162.2,38.1,163.1,38.5,164.3,38.5z"/>
</g>
<g>
	<path fill="#F7C215" d="M70.8,46.8h0.9l0.1,0.7c0.6-0.5,1.2-0.8,1.9-0.8c0.7,0,1.2,0.3,1.5,0.9c0.7-0.6,1.4-0.9,2.1-0.9
		c0.9,0,1.7,0.6,1.7,2v3.7h-1v-3.4c0-0.8-0.2-1.4-0.9-1.4c-0.6,0-1.1,0.3-1.6,0.7c0,0.1,0,0.2,0,0.3v3.8h-1v-3.4
		c0-0.8-0.2-1.4-0.9-1.4c-0.6,0-1.1,0.3-1.6,0.7v4.1h-1V46.8z"/>
	<path fill="#F7C215" d="M80.6,51.4c-0.1-0.3-0.2-0.6-0.2-1.1v-3.6h1v3.4c0,0.4,0,0.6,0.1,0.8c0.1,0.4,0.4,0.6,0.9,0.6
		c0.6,0,1.1-0.3,1.4-0.7v-4.1h1v3.9c0,0.9,0,1.4,0.1,1.7h-0.9L84,51.7c-0.5,0.4-1.1,0.7-1.8,0.7C81.6,52.5,80.9,52.2,80.6,51.4z"/>
	<path fill="#F7C215" d="M86.4,51.2c0.4,0.2,0.8,0.4,1.4,0.4c0.6,0,1.1-0.2,1.1-0.8c0-1.1-2.6-0.8-2.6-2.6c0-0.9,0.7-1.6,2-1.6
		c0.6,0,1.1,0.1,1.5,0.3v0.9c-0.4-0.2-0.9-0.3-1.4-0.3c-0.5,0-1,0.2-1,0.7c0,1.1,2.6,0.7,2.6,2.6c0,1.1-1,1.7-2.1,1.7
		c-0.8,0-1.4-0.2-1.8-0.5L86.4,51.2z"/>
	<path fill="#F7C215" d="M91.1,44.9c0-0.4,0.3-0.7,0.7-0.7c0.4,0,0.7,0.3,0.7,0.7c0,0.4-0.3,0.7-0.7,0.7
		C91.4,45.6,91.1,45.3,91.1,44.9z M91.3,46.8h1v5.6h-1V46.8z"/>
	<path fill="#F7C215" d="M93.6,49.6c0-1.7,1.1-3,2.8-3c0.6,0,1.1,0.2,1.4,0.4v0.9c-0.4-0.2-0.8-0.4-1.3-0.4c-1.1,0-1.8,0.9-1.8,2.1
		c0,1.3,0.7,2.1,1.8,2.1c0.6,0,1-0.2,1.3-0.4l0.3,0.7c-0.4,0.3-1.1,0.5-1.8,0.5C94.6,52.5,93.6,51.2,93.6,49.6z"/>
	<path fill="#F7C215" d="M101.1,53.5c0-0.6,0.4-1.1,1-1.4c-0.2-0.1-0.4-0.4-0.4-0.7s0.1-0.7,0.6-1.1c-0.6-0.3-0.9-1-0.9-1.7
		c0-1.1,0.8-2,2.1-2c0.5,0,0.9,0.1,1.1,0.2c0.1,0,0.1,0,0.1,0c0.3-0.3,0.6-0.5,1.2-0.5c0.1,0,0.3,0,0.3,0l-0.2,0.8
		c-0.1,0-0.2,0-0.3,0c-0.2,0-0.4,0-0.5,0.1c0.4,0.4,0.6,0.9,0.6,1.4c0,1.2-0.9,2-2.2,2c-0.3,0-0.5,0-0.7-0.1
		c-0.2,0.2-0.3,0.4-0.3,0.6c0,1.1,3.7,0.1,3.7,2.2c0,1-1,1.8-2.8,1.8C102.1,55.2,101.1,54.5,101.1,53.5z M105.4,53.5
		c0-1-1.7-0.8-2.6-1.1c-0.3,0.2-0.7,0.5-0.7,0.9c0,0.6,0.7,1,1.6,1C104.8,54.4,105.4,54,105.4,53.5z M104.9,48.7
		c0-0.7-0.5-1.2-1.2-1.2c-0.7,0-1.2,0.4-1.2,1.2c0,0.7,0.4,1.2,1.2,1.2C104.4,49.9,104.9,49.5,104.9,48.7z"/>
	<path fill="#F7C215" d="M107.4,46.8h0.9l0.1,0.7c0.6-0.6,1.1-0.8,1.6-0.8c0.2,0,0.5,0.1,0.7,0.2l-0.4,0.9c-0.2-0.1-0.4-0.1-0.5-0.1
		c-0.4,0-0.8,0.2-1.3,0.7v4.1h-1V46.8z"/>
	<path fill="#F7C215" d="M110.9,49.6c0-1.7,1.1-2.9,2.7-2.9c1.6,0,2.7,1.3,2.7,2.9c0,1.6-1.1,2.9-2.7,2.9
		C111.9,52.5,110.9,51.2,110.9,49.6z M115.1,49.6c0-1.2-0.6-2.1-1.6-2.1c-1,0-1.6,0.9-1.6,2.1c0,1.2,0.6,2.1,1.6,2.1
		C114.5,51.6,115.1,50.7,115.1,49.6z"/>
	<path fill="#F7C215" d="M117.5,51.4c-0.1-0.3-0.2-0.6-0.2-1.1v-3.6h1v3.4c0,0.4,0,0.6,0.1,0.8c0.1,0.4,0.4,0.6,0.9,0.6
		c0.6,0,1.1-0.3,1.4-0.7v-4.1h1v3.9c0,0.9,0,1.4,0.1,1.7h-0.9l-0.2-0.6c-0.5,0.4-1.1,0.7-1.8,0.7C118.5,52.5,117.8,52.2,117.5,51.4z
		"/>
	<path fill="#F7C215" d="M123.5,47c0.6-0.2,1.3-0.3,1.9-0.3c1.9,0,2.9,1.1,2.9,2.9c0,1.8-1.2,2.9-2.9,2.9c-0.3,0-0.7-0.1-0.9-0.2
		v2.9h-1V47z M125.4,51.6c1.2,0,1.8-0.8,1.8-2.1c0-1.4-0.8-2-1.9-2c-0.3,0-0.6,0-0.9,0.1v3.8C124.8,51.5,125.1,51.6,125.4,51.6z"/>
</g>
</svg>
